<svg width="64" height="15" viewBox="0 0 64 15" fill="none" xmlns="http://www.w3.org/2000/svg">
<path fill-rule="evenodd" clip-rule="evenodd" d="M6.17444 6.9756C6.17444 5.27633 6.18464 3.88837 6.19993 3.88837C6.20534 3.88837 11.5741 6.9328 11.4967 7.0062C11.4457 7.05213 6.23057 10.0628 6.19996 10.0628C6.18466 10.0628 6.17444 8.67482 6.17444 6.9756Z" fill="#B3CA0A"/>
<path fill-rule="evenodd" clip-rule="evenodd" d="M33.2196 1.26043V0.0102394L44.5734 0.0357588V2.48509L33.2196 2.51064V1.26043ZM0 12.819V14.0397C2.44899 14.0397 8.15504 14.0402 9.08305 13.9257C12.9561 13.4562 14.8952 11.9815 15.5127 9.02696C15.829 7.5216 15.727 5.42433 15.2728 4.09249C14.5686 2.02584 12.8438 0.76032 10.1037 0.285767C8.80239 0.0612496 8.49621 0.0510377 4.17412 0.0255194L0 0V2.45565H1.9799C2.58675 2.46314 3.32707 2.46961 4.17412 2.47489C8.40438 2.49528 8.57282 2.50041 9.51172 2.74534C10.7262 3.06172 11.5937 3.69959 12.0377 4.61298C12.4101 5.37333 12.5275 6.09282 12.4867 7.35832C12.4662 8.03191 12.4356 8.30236 12.3336 8.69526C11.9049 10.3435 10.8334 11.1498 8.62383 11.4763C8.17986 11.5427 7.37873 11.5631 4.04654 11.5784L0 11.5988V12.819ZM17.0945 10.2352V14.0397H18.7049V14.0331L20.2328 14.0176L20.2583 8.94028C21.1248 8.94028 22.7908 8.94448 23.4221 8.90964L23.9068 8.88412L27.785 14.0431H31.5917L29.3771 11.16L27.3615 8.5575C28.2093 8.34324 28.6882 8.24187 29.3975 7.73089C30.1884 7.16957 30.6171 6.55212 30.8314 5.69484C30.9743 5.10288 30.9845 3.92414 30.8519 3.30161C30.6171 2.22998 30.0711 1.44925 29.1832 0.91855C28.7597 0.67362 28.0147 0.403172 27.4483 0.290886C26.2899 0.0714757 25.8612 0.0510899 21.3963 0.0255444L17.0945 5.40226e-05V2.40347L21.3963 2.42391C25.0703 2.43921 25.7439 2.45453 26.05 2.52088C26.8971 2.71474 27.336 2.9954 27.586 3.51079C27.6983 3.74042 27.7289 3.88331 27.7493 4.29152C27.7697 4.72017 27.7595 4.81711 27.6574 5.05184C27.4227 5.60295 26.9022 5.89892 25.8204 6.11323C25.4428 6.18976 24.8611 6.20507 21.2432 6.22039L17.0945 6.24083V10.2352ZM17.0945 10.2352C17.0945 11.255 17.0792 12.5025 17.1137 13.5104L17.1425 13.8914L17.0945 10.2352ZM0.00510669 7.093C0.0102403 5.45499 0.0254638 4.06701 0.0408374 4.00067C0.0765276 3.88839 0.122431 3.90881 1.12267 4.49054C1.29156 4.58821 5.42593 6.95031 5.3733 7.00112C5.29673 7.07259 0.091833 10.0628 0.0459301 10.0628C0.0203982 10.0628 2.75454e-05 8.79226 0.00510669 7.093ZM58.1929 12.1499C57.1826 11.1089 56.3559 10.2312 56.3508 10.1955C56.3391 10.12 57.9975 8.4342 58.3001 8.12377L64 14.0431C62.6733 14.0431 61.3465 14.0431 60.0198 14.0431L58.1929 12.1499ZM49.4415 3.08726L46.4716 0.0102394C47.8001 0.0102394 49.1286 0.0102394 50.457 0.0102394C50.884 0.453582 53.3758 3.03139 53.3758 3.07704C53.3758 3.10765 51.4929 5.07223 51.4316 5.10288C51.4163 5.10799 50.5183 4.20477 49.4415 3.08726ZM46.1094 13.5736L59.2033 0.0102394C59.7468 0.0102394 63.1356 -0.00253193 63.1121 0.056171L49.6354 14.0431C48.3087 14.0431 46.9819 14.0431 45.6552 14.0431L46.1094 13.5736ZM33.2196 10.0884V6.13365H42.2516V8.53198H36.3323V11.5427L44.9307 11.5682V14.0175L33.2196 14.0431V10.0884Z" fill="#064658"/>
</svg>
