<svg width="18" height="16" viewBox="0 0 18 16" fill="none" xmlns="http://www.w3.org/2000/svg">
<path fill-rule="evenodd" clip-rule="evenodd" d="M7.24316 8.31628C7.24316 6.50199 7.25405 5.02008 7.27038 5.02008C7.27615 5.02008 13.0083 8.27058 12.9257 8.34895C12.8712 8.39798 7.30309 11.6124 7.27041 11.6124C7.25408 11.6124 7.24316 10.1305 7.24316 8.31628Z" fill="#064658"/>
<path fill-rule="evenodd" clip-rule="evenodd" d="M0.650879 14.5552V15.8585C3.26564 15.8585 9.35791 15.8591 10.3487 15.7368C14.484 15.2356 16.5543 13.661 17.2135 10.5065C17.5513 8.89925 17.4424 6.66002 16.9575 5.23803C16.2056 3.0315 14.3641 1.68031 11.4384 1.17364C10.0491 0.933926 9.72217 0.923023 5.10753 0.895777L0.650879 0.86853V3.4904H2.76479C3.41272 3.49839 4.20315 3.5053 5.10753 3.51094C9.62412 3.53271 9.80397 3.53819 10.8064 3.79969C12.1031 4.13749 13.0293 4.81854 13.5033 5.79375C13.901 6.60556 14.0263 7.37376 13.9827 8.72492C13.9609 9.4441 13.9283 9.73285 13.8193 10.1523C13.3616 11.9121 12.2175 12.773 9.85843 13.1217C9.38441 13.1925 8.52905 13.2143 4.97132 13.2306L0.650879 13.2524V14.5552ZM0.656331 8.44164C0.661812 6.69275 0.678066 5.21082 0.69448 5.13999C0.732586 5.02012 0.781597 5.04191 1.84954 5.66302C2.02986 5.76731 6.44407 8.28929 6.38788 8.34354C6.30613 8.41985 0.748928 11.6125 0.699918 11.6125C0.672658 11.6125 0.650908 10.2559 0.656331 8.44164Z" fill="#064658"/>
</svg>
