<svg width="92" height="52" viewBox="0 0 92 52" fill="none" xmlns="http://www.w3.org/2000/svg">
<path d="M88.7163 36.0636H87.1782V25.2717C87.1818 24.0541 86.7095 22.884 85.8635 22.0143L74.82 10.6001C74.3878 10.1566 73.8722 9.80415 73.3035 9.56319C72.7347 9.32222 72.124 9.19758 71.507 9.1965H60.503V5.66102C60.503 4.42484 60.0155 3.23929 59.1476 2.36518C58.2797 1.49107 57.1026 1 55.8753 1H17.7492C16.6283 1.00396 15.5472 1.4187 14.7077 2.16677C13.8682 2.91484 13.3277 3.94509 13.1872 5.06515H4.07638C3.90204 5.06515 3.73484 5.1349 3.61157 5.25907C3.48829 5.38323 3.41904 5.55163 3.41904 5.72722C3.41904 5.90282 3.48829 6.07122 3.61157 6.19538C3.73484 6.31955 3.90204 6.3893 4.07638 6.3893H20.4443C20.6187 6.3893 20.7859 6.31955 20.9091 6.19538C21.0324 6.07122 21.1017 5.90282 21.1017 5.72722C21.1017 5.55163 21.0324 5.38323 20.9091 5.25907C20.7859 5.1349 20.6187 5.06515 20.4443 5.06515H14.5019C14.6401 4.29819 15.0405 3.60417 15.6337 3.1035C16.2268 2.60282 16.9753 2.32709 17.7492 2.32415H55.8753C56.754 2.32415 57.5967 2.67572 58.218 3.3015C58.8393 3.92728 59.1883 4.77603 59.1883 5.66102V36.1165H37.9166C37.0476 34.6838 35.8278 33.4999 34.374 32.6786C32.9202 31.8572 31.2812 31.4258 29.6143 31.4258C27.9474 31.4258 26.3084 31.8572 24.8546 32.6786C23.4008 33.4999 22.181 34.6838 21.312 36.1165H14.4362V29.8003H28.6349C28.8092 29.8003 28.9764 29.7306 29.0997 29.6064C29.2229 29.4822 29.2922 29.3138 29.2922 29.1382C29.2922 28.9626 29.2229 28.7942 29.0997 28.6701C28.9764 28.5459 28.8092 28.4762 28.6349 28.4762H1.65735C1.48301 28.4762 1.31581 28.5459 1.19253 28.6701C1.06926 28.7942 1 28.9626 1 29.1382C1 29.3138 1.06926 29.4822 1.19253 29.6064C1.31581 29.7306 1.48301 29.8003 1.65735 29.8003H13.1215V36.0636H11.3861C10.8805 36.0636 10.3956 36.2658 10.0381 36.6259C9.68061 36.986 9.47977 37.4744 9.47977 37.9836V39.9301C9.47804 40.1833 9.52607 40.4344 9.62109 40.6689C9.71611 40.9034 9.85626 41.1166 10.0334 41.2963C10.2106 41.476 10.4214 41.6186 10.6535 41.7159C10.8857 41.8133 11.1346 41.8634 11.3861 41.8633H19.9447C20.1081 44.34 21.1999 46.6615 22.9989 48.3579C24.7978 50.0543 27.1697 50.9987 29.634 51H30.0284C32.4277 50.9041 34.707 49.9179 36.4278 48.2312C38.1486 46.5445 39.1893 44.2764 39.3496 41.8633H63.4874C63.6508 44.34 64.7425 46.6615 66.5415 48.3579C68.3405 50.0543 70.7123 50.9987 73.1767 51H73.5316C75.9378 50.9137 78.2268 49.9317 79.9558 48.2441C81.6848 46.5564 82.7311 44.283 82.8923 41.8633H88.7163C89.2219 41.8633 89.7068 41.6611 90.0643 41.301C90.4218 40.9409 90.6226 40.4525 90.6226 39.9433V37.9703C90.6192 37.4634 90.4168 36.9784 90.0597 36.6212C89.7026 36.264 89.2197 36.0635 88.7163 36.0636ZM60.503 10.5207H71.507C71.948 10.522 72.3843 10.6117 72.7906 10.7845C73.1968 10.9572 73.5649 11.2096 73.8735 11.527L84.9169 22.9412C85.5189 23.5651 85.854 24.4018 85.8503 25.2717V36.0636H81.4855C80.6142 34.6339 79.3935 33.4532 77.94 32.6341C76.4865 31.815 74.8488 31.3849 73.1832 31.3849C71.5177 31.3849 69.88 31.815 68.4265 32.6341C66.973 33.4532 65.7523 34.6339 64.8809 36.0636H60.503V10.5207ZM64.2105 37.3877C63.7916 38.3893 63.5427 39.4546 63.4742 40.5392H39.3365C39.268 39.4645 39.0237 38.4086 38.6134 37.4142H64.2105V37.3877ZM10.7945 39.9168V37.9703C10.7945 37.8123 10.8568 37.6607 10.9677 37.549C11.0787 37.4372 11.2292 37.3745 11.3861 37.3745H20.6678C20.2478 38.3803 19.9989 39.4501 19.9316 40.5392H11.3861C11.3061 40.5393 11.227 40.523 11.1534 40.4914C11.0799 40.4599 11.0135 40.4136 10.9582 40.3554C10.9029 40.2972 10.8599 40.2284 10.8317 40.153C10.8036 40.0776 10.7909 39.9973 10.7945 39.9168ZM35.7736 46.9481C34.8306 47.9668 33.6528 48.7357 32.3445 49.1867C31.0362 49.6378 29.6376 49.7571 28.2726 49.5342C26.9076 49.3112 25.6182 48.7528 24.5185 47.9084C23.4187 47.064 22.5426 45.9596 21.9676 44.6929C21.3925 43.4263 21.1363 42.0364 21.2216 40.6462C21.3069 39.2561 21.731 37.9085 22.4565 36.7228C23.182 35.5371 24.1865 34.5497 25.381 33.8481C26.5756 33.1465 27.9235 32.7522 29.3053 32.7002H29.6077C31.2489 32.6938 32.8561 33.1709 34.2315 34.0728C35.6069 34.9748 36.6903 36.2622 37.3484 37.7764C38.0065 39.2907 38.2106 40.9658 37.9355 42.5954C37.6603 44.225 36.918 45.738 35.7999 46.9481H35.7736ZM79.3163 46.9481C78.1858 48.183 76.7164 49.0516 75.0948 49.4438C73.4732 49.8359 71.7724 49.7339 70.2085 49.1505C68.6446 48.5672 67.288 47.529 66.3111 46.1676C65.3342 44.8062 64.781 43.1832 64.7217 41.5045C64.6625 39.8259 65.0998 38.1673 65.9783 36.7395C66.8567 35.3117 68.1366 34.1791 69.6555 33.4853C71.1743 32.7916 72.8636 32.5681 74.5088 32.8433C76.154 33.1185 77.6809 33.8798 78.8956 35.0307C79.7031 35.7829 80.3554 36.6881 80.8151 37.6946C81.2748 38.701 81.5327 39.7889 81.5743 40.896C81.6158 42.003 81.44 43.1075 81.0571 44.146C80.6741 45.1845 80.0915 46.1367 79.3426 46.9481H79.3163ZM89.2685 39.9168C89.2685 40.0749 89.2062 40.2264 89.0952 40.3382C88.9843 40.4499 88.8338 40.5127 88.6769 40.5127H82.8791C82.8107 39.438 82.5664 38.3821 82.156 37.3877H88.7295C88.8864 37.3877 89.0369 37.4505 89.1478 37.5622C89.2588 37.674 89.3211 37.8255 89.3211 37.9836V39.9301L89.2685 39.9168Z" fill="#064658" stroke="#064658" stroke-width="1.5"/>
<path d="M78.669 26.4717C78.8368 26.4717 78.9976 26.4006 79.1162 26.2741C79.2348 26.1476 79.3014 25.976 79.3014 25.7971V23.099C79.3092 22.6976 79.2416 22.2987 79.1025 21.9257C78.9635 21.5527 78.7559 21.2131 78.492 20.9269L72.3832 14.1815C72.1198 13.8931 71.8052 13.6634 71.4578 13.5059C71.1104 13.3484 70.7371 13.2662 70.3596 13.2641H63.8967C63.7289 13.2641 63.5681 13.3352 63.4495 13.4617C63.3309 13.5882 63.2643 13.7598 63.2643 13.9387V25.7432C63.2643 25.9221 63.3309 26.0937 63.4495 26.2202C63.5681 26.3467 63.7289 26.4177 63.8967 26.4177H78.669V26.4717ZM64.5796 14.6672H70.4102C70.6195 14.666 70.827 14.7096 71.0203 14.7953C71.2136 14.8811 71.3889 15.0072 71.5358 15.1664L77.6446 21.9118C77.9286 22.222 78.0875 22.6384 78.0873 23.072V25.1631H64.5796V14.6672Z" fill="#064658" stroke="#064658" stroke-width="1.5"/>
<path d="M27.7044 13.2641H13.918C13.7446 13.2641 13.5782 13.3138 13.4556 13.4023C13.3329 13.4908 13.264 13.6107 13.264 13.7358C13.264 13.8609 13.3329 13.9809 13.4556 14.0694C13.5782 14.1578 13.7446 14.2075 13.918 14.2075H27.7044C27.8778 14.2075 28.0442 14.1578 28.1668 14.0694C28.2895 13.9809 28.3584 13.8609 28.3584 13.7358C28.3584 13.6107 28.2895 13.4908 28.1668 13.4023C28.0442 13.3138 27.8778 13.2641 27.7044 13.2641Z" fill="#064658" stroke="#064658" stroke-width="1.5"/>
<path d="M21.7545 21.283C21.7545 21.4081 21.8238 21.5281 21.947 21.6166C22.0702 21.705 22.2374 21.7547 22.4117 21.7547H29.5879C29.7622 21.7547 29.9294 21.705 30.0526 21.6166C30.1758 21.5281 30.2451 21.4081 30.2451 21.283C30.2451 21.1579 30.1758 21.0379 30.0526 20.9495C29.9294 20.861 29.7622 20.8113 29.5879 20.8113H22.4117C22.2374 20.8113 22.0702 20.861 21.947 20.9495C21.8238 21.0379 21.7545 21.1579 21.7545 21.283Z" fill="#064658" stroke="#064658" stroke-width="1.5"/>
<path d="M9.4906 21.283C9.4906 21.4081 9.55726 21.5281 9.67591 21.6166C9.79456 21.705 9.95548 21.7547 10.1233 21.7547H17.3485C17.5163 21.7547 17.6772 21.705 17.7959 21.6166C17.9145 21.5281 17.9812 21.4081 17.9812 21.283C17.9812 21.1579 17.9145 21.0379 17.7959 20.9495C17.6772 20.861 17.5163 20.8113 17.3485 20.8113H10.1233C9.95548 20.8113 9.79456 20.861 9.67591 20.9495C9.55726 21.0379 9.4906 21.1579 9.4906 21.283Z" fill="#064658" stroke="#064658" stroke-width="1.5"/>
<path d="M29.6243 36.8528C28.643 36.8873 27.704 37.2608 26.9672 37.9098C26.2304 38.5588 25.7414 39.4431 25.5835 40.4121C25.4255 41.3811 25.6084 42.3749 26.101 43.2242C26.5935 44.0735 27.3653 44.7259 28.2849 45.0701C29.2044 45.4144 30.2149 45.4293 31.1442 45.1123C32.0735 44.7953 32.8642 44.166 33.3816 43.3316C33.899 42.4972 34.1111 41.5092 33.9818 40.536C33.8525 39.5627 33.3898 38.6644 32.6725 37.994C32.2667 37.6094 31.7878 37.3102 31.2642 37.1142C30.7405 36.9181 30.1829 36.8292 29.6243 36.8528ZM31.8652 43.0459C31.5447 43.3881 31.1448 43.646 30.7009 43.7969C30.257 43.9478 29.7828 43.987 29.3201 43.911C28.8575 43.835 28.4207 43.6462 28.0483 43.3613C27.676 43.0764 27.3797 42.7041 27.1855 42.2774C26.9913 41.8507 26.9052 41.3827 26.9349 40.9149C26.9646 40.447 27.1092 39.9937 27.3558 39.595C27.6024 39.1963 27.9435 38.8645 28.3488 38.629C28.7542 38.3934 29.2114 38.2614 29.6799 38.2445H29.7913C30.3438 38.249 30.8832 38.4138 31.3439 38.719C31.8046 39.0241 32.1667 39.4565 32.3863 39.9635C32.606 40.4705 32.6736 41.0303 32.5811 41.575C32.4886 42.1198 32.2399 42.6259 31.8652 43.032V43.0459Z" fill="#064658" stroke="#064658" stroke-width="1.5"/>
<path d="M73.0205 36.8528C72.0392 36.8873 71.1002 37.2608 70.3634 37.9098C69.6267 38.5588 69.1377 39.4431 68.9797 40.4121C68.8218 41.3811 69.0047 42.3749 69.4972 43.2242C69.9898 44.0735 70.7615 44.7259 71.6811 45.0701C72.6007 45.4144 73.6111 45.4293 74.5404 45.1123C75.4697 44.7953 76.2604 44.166 76.7778 43.3316C77.2952 42.4972 77.5073 41.5092 77.378 40.536C77.2487 39.5627 76.786 38.6644 76.0687 37.994C75.6629 37.6094 75.184 37.3102 74.6604 37.1142C74.1368 36.9181 73.5791 36.8292 73.0205 36.8528ZM75.2614 43.0459C74.9409 43.3881 74.5411 43.646 74.0972 43.7969C73.6533 43.9478 73.179 43.987 72.7164 43.911C72.2537 43.835 71.8169 43.6462 71.4446 43.3613C71.0723 43.0764 70.7759 42.7041 70.5817 42.2774C70.3875 41.8507 70.3015 41.3827 70.3312 40.9149C70.3609 40.447 70.5054 39.9937 70.752 39.595C70.9986 39.1963 71.3397 38.8645 71.7451 38.629C72.1504 38.3934 72.6076 38.2614 73.0762 38.2445H73.1875C73.7401 38.249 74.2795 38.4138 74.7401 38.719C75.2008 39.0241 75.5629 39.4565 75.7826 39.9635C76.0022 40.4705 76.0699 41.0303 75.9774 41.575C75.8848 42.1198 75.6361 42.6259 75.2614 43.032V43.0459Z" fill="#064658" stroke="#064658" stroke-width="1.5"/>
<path d="M43.0153 31.0586C43.1582 31.1438 43.3204 31.1887 43.4855 31.1887C43.6505 31.1887 43.8127 31.1438 43.9557 31.0586L53.3599 25.4091C53.5022 25.3243 53.6205 25.2025 53.703 25.0558C53.7855 24.9091 53.8293 24.7427 53.8302 24.5731V13.2739C53.8293 13.1043 53.7855 12.9379 53.703 12.7912C53.6205 12.6446 53.5022 12.5228 53.3599 12.438L43.9557 6.7884C43.8123 6.7045 43.6503 6.66039 43.4855 6.66039C43.3206 6.66039 43.1586 6.7045 43.0153 6.7884L33.5457 12.438C33.4034 12.5228 33.2851 12.6446 33.2026 12.7912C33.1201 12.9379 33.0763 13.1043 33.0755 13.2739V24.5596C33.074 24.7315 33.1167 24.9007 33.1993 25.0499C33.282 25.1992 33.4015 25.3231 33.5457 25.4091L43.0153 31.0586ZM44.1385 29.3867V18.0471L52.5893 13.6919V24.3439L44.1385 29.3867ZM43.4855 8.06933L51.453 12.8155L43.4855 16.8605L35.518 12.8155L43.4855 8.06933ZM34.3424 13.7459L42.7932 18.0471V29.3867L34.3686 24.3439V13.6919L34.3424 13.7459Z" fill="#064658" stroke="#064658" stroke-width="1.5"/>
</svg>
