<svg width="52" height="43" viewBox="0 0 52 43" fill="none" xmlns="http://www.w3.org/2000/svg">
<path fill-rule="evenodd" clip-rule="evenodd" d="M50.2846 37.8983C51.0916 37.8983 51.7458 37.2448 51.7458 36.4434V9.3986C51.7458 8.59508 51.2843 7.48228 50.7154 6.91334L44.8324 1.03036C44.2634 0.461306 43.1449 0 42.3497 0H25.5032C24.7011 0 24.0508 0.651487 24.0508 1.46119V2.18288C24.0508 2.98987 23.4047 3.64407 22.5889 3.64407H20.4111C19.6037 3.64407 18.9492 4.29433 18.9492 5.10322V41.5409C18.9492 42.3467 19.5989 43 20.4048 43H46.646C47.45 43 48.1017 42.3539 48.1017 41.5381V39.3602C48.1017 38.5528 48.7532 37.8983 49.5629 37.8983H50.2846ZM48.8328 33.52C48.8315 34.328 48.1762 34.9831 47.379 34.9831H28.4176C27.616 34.9831 26.9667 34.3279 26.9673 33.5218L26.9922 4.37589C26.9929 3.56887 27.6499 2.91452 28.4583 2.91435L40.8063 2.91181C41.6153 2.91165 42.2712 3.5648 42.2712 4.36807V6.5577C42.2712 8.16865 43.5749 9.47458 45.1848 9.47458H47.4057C48.2145 9.47458 48.8692 10.1308 48.8679 10.9376L48.8328 33.52ZM44.4629 40.0847C44.8625 40.0847 45.1864 39.7621 45.1864 39.3567V38.6264C45.1864 38.2243 44.8545 37.8983 44.4589 37.8983H25.5036C24.7013 37.8983 24.0508 37.2437 24.0508 36.4392V7.28785C24.0508 6.8855 23.7282 6.55932 23.3228 6.55932H22.5925C22.1904 6.55932 21.8644 6.89114 21.8644 7.29073V38.6226C21.8644 39.4301 22.5125 40.0847 23.3233 40.0847H44.4629ZM14.5763 16.7627C15.3813 16.7627 16.0339 16.1101 16.0339 15.3051C16.0339 14.5001 15.3813 13.8475 14.5763 13.8475H9.47458C8.66955 13.8475 8.01695 14.5001 8.01695 15.3051C8.01695 16.1101 8.66955 16.7627 9.47458 16.7627H14.5763ZM14.5763 22.5932C15.3813 22.5932 16.0339 21.9406 16.0339 21.1356C16.0339 20.3306 15.3813 19.678 14.5763 19.678H1.45763C0.652602 19.678 0 20.3306 0 21.1356C0 21.9406 0.652602 22.5932 1.45763 22.5932H14.5763ZM14.5763 28.4237C15.3813 28.4237 16.0339 27.7711 16.0339 26.9661C16.0339 26.1611 15.3813 25.5085 14.5763 25.5085H5.83051C5.02548 25.5085 4.37288 26.1611 4.37288 26.9661C4.37288 27.7711 5.02548 28.4237 5.83051 28.4237H14.5763Z" fill="#064658"/>
</svg>
