<svg width="68" height="50" viewBox="0 0 68 50" fill="none" xmlns="http://www.w3.org/2000/svg">
<path fill-rule="evenodd" clip-rule="evenodd" d="M17.7782 26.2283C17.7783 26.0265 17.8192 25.8267 17.8984 25.6404C17.9777 25.454 18.0938 25.2847 18.2401 25.1422C18.3865 24.9996 18.5602 24.8867 18.7512 24.8097C18.9423 24.7328 19.1471 24.6934 19.3538 24.6938H47.6917C48.1083 24.6938 48.508 24.8554 48.8026 25.143C49.0972 25.4307 49.2628 25.8208 49.2628 26.2276C49.2628 26.6344 49.0972 27.0246 48.8026 27.3122C48.508 27.5999 48.1083 27.7615 47.6917 27.7615H19.3538C18.9366 27.7621 18.5363 27.6009 18.2409 27.3134C17.9454 27.0259 17.779 26.6356 17.7782 26.2283ZM17.7782 30.8379C17.7785 30.6362 17.8195 30.4365 17.8988 30.2503C17.9782 30.064 18.0943 29.8948 18.2406 29.7524C18.3869 29.61 18.5605 29.4971 18.7515 29.4201C18.9425 29.3432 19.1472 29.3038 19.3538 29.3041H47.6917C47.9009 29.2996 48.109 29.336 48.3036 29.4111C48.4983 29.4862 48.6756 29.5985 48.8252 29.7414C48.9748 29.8843 49.0936 30.055 49.1748 30.2433C49.2559 30.4317 49.2977 30.6339 49.2977 30.8383C49.2977 31.0426 49.2559 31.2449 49.1748 31.4332C49.0936 31.6216 48.9748 31.7922 48.8252 31.9351C48.6756 32.078 48.4983 32.1903 48.3036 32.2655C48.109 32.3406 47.9009 32.3769 47.6917 32.3725H19.3538C19.1471 32.3729 18.9423 32.3335 18.7512 32.2565C18.5602 32.1796 18.3865 32.0666 18.2401 31.9241C18.0938 31.7816 17.9777 31.6123 17.8984 31.4259C17.8192 31.2395 17.7783 31.0397 17.7782 30.8379ZM56.637 26.5527C57.0381 26.5534 57.4299 26.6702 57.763 26.8882C58.0961 27.1063 58.3555 27.4158 58.5084 27.7778C58.6614 28.1397 58.7011 28.5378 58.6224 28.9217C58.5437 29.3056 58.3502 29.6582 58.0663 29.9348C57.7825 30.2114 57.4211 30.3996 57.0277 30.4758C56.6343 30.5519 56.2266 30.5124 55.8562 30.3624C55.4857 30.2124 55.1691 29.9586 54.9464 29.633C54.7237 29.3074 54.6048 28.9247 54.6048 28.5331C54.6048 28.2728 54.6574 28.0149 54.7596 27.7744C54.8617 27.5339 55.0115 27.3154 55.2002 27.1315C55.389 26.9475 55.6131 26.8017 55.8596 26.7024C56.1061 26.6031 56.3703 26.5522 56.637 26.5527ZM56.637 33.5813C57.6599 33.5814 58.6598 33.2854 59.5104 32.7307C60.361 32.176 61.0239 31.3874 61.4154 30.4649C61.8069 29.5423 61.9094 28.5271 61.7099 27.5476C61.5104 26.5682 61.0178 25.6685 60.2945 24.9623C59.5712 24.2562 58.6497 23.7753 57.6465 23.5805C56.6433 23.3857 55.6034 23.4858 54.6584 23.868C53.7134 24.2502 52.9058 24.8975 52.3376 25.7279C51.7694 26.5583 51.4662 27.5345 51.4663 28.5331C51.4683 29.8714 52.0137 31.1543 52.983 32.1006C53.9522 33.0469 55.2663 33.5793 56.637 33.5813ZM10.4084 26.5527C10.8097 26.5523 11.2021 26.6681 11.536 26.8854C11.8699 27.1028 12.1302 27.4119 12.2841 27.7737C12.438 28.1356 12.4785 28.5338 12.4005 28.9182C12.3224 29.3025 12.1294 29.6555 11.8458 29.9327C11.5622 30.2099 11.2008 30.3987 10.8072 30.4753C10.4137 30.5519 10.0057 30.5128 9.63491 30.363C9.26412 30.2132 8.94718 29.9593 8.72419 29.6336C8.5012 29.3079 8.38217 28.9249 8.38217 28.5331C8.38355 28.0087 8.5974 27.5061 8.97703 27.135C9.35667 26.764 9.87125 26.5546 10.4084 26.5527ZM10.4084 33.5813C11.4313 33.5814 12.4313 33.2854 13.2818 32.7307C14.1324 32.176 14.7953 31.3874 15.1868 30.4649C15.5783 29.5423 15.6808 28.5271 15.4813 27.5476C15.2818 26.5682 14.7892 25.6685 14.0659 24.9623C13.3427 24.2562 12.4211 23.7753 11.4179 23.5805C10.4147 23.3857 9.3748 23.4858 8.42981 23.868C7.48482 24.2502 6.67716 24.8975 6.10897 25.7279C5.54079 26.5583 5.23759 27.5345 5.23774 28.5331C5.23873 29.8717 5.78381 31.1551 6.75329 32.1016C7.72277 33.0481 9.03738 33.5803 10.4084 33.5813ZM3.14294 23.9912V33.0758C3.14413 34.1745 3.59202 35.2278 4.38821 36.0043C5.1844 36.7808 6.26376 37.217 7.38915 37.217H59.6578C60.7832 37.217 61.8625 36.7808 62.6587 36.0043C63.4549 35.2278 63.9028 34.1745 63.904 33.0758V23.9912C63.904 22.8917 63.4566 21.8373 62.6603 21.0598C61.864 20.2824 60.784 19.8456 59.6578 19.8456H7.38692C6.26075 19.8456 5.18071 20.2824 4.38439 21.0598C3.58807 21.8373 3.14071 22.8917 3.14071 23.9912H3.14294ZM16.1535 5.98274C16.6601 5.08351 17.4093 4.33693 18.3198 3.82407C19.2303 3.3112 20.2673 3.05164 21.3182 3.07357H45.7272C46.7783 3.05092 47.8156 3.31017 48.7263 3.82311C49.6369 4.33605 50.386 5.08302 50.892 5.98274L57.2799 16.7816H9.76554L16.1535 5.98274ZM53.9001 46.8623C52.7889 46.8614 51.7235 46.4304 50.9374 45.6638C50.1512 44.8972 49.7084 43.8576 49.706 42.7728V40.2862H58.0889V42.7713C58.0877 43.8556 57.646 44.8951 56.8607 45.6618C56.0754 46.4285 55.0107 46.8597 53.9001 46.8609V46.8623ZM17.3394 42.7386C17.3248 43.8144 16.8767 44.8413 16.0922 45.5971C15.3078 46.3528 14.2501 46.7765 13.148 46.7765C12.0459 46.7765 10.9882 46.3528 10.2037 45.5971C9.41928 44.8413 8.97122 43.8144 8.95653 42.7386V40.2862H17.3394V42.7386ZM5.81806 40.1203V42.7386C5.80829 43.6844 5.99067 44.6228 6.35465 45.4993C6.71864 46.3759 7.257 47.1734 7.93862 47.8456C8.62024 48.5178 9.43158 49.0514 10.3257 49.4156C11.2199 49.7798 12.1791 49.9673 13.148 49.9673C14.1168 49.9673 15.0761 49.7798 15.9702 49.4156C16.8644 49.0514 17.6757 48.5178 18.3574 47.8456C19.039 47.1734 19.5773 46.3759 19.9413 45.4993C20.3053 44.6228 20.4877 43.6844 20.4779 42.7386V40.2862H46.5675V42.7713C46.5578 43.7171 46.7402 44.6555 47.1041 45.5321C47.4681 46.4087 48.0065 47.2061 48.6881 47.8783C49.3697 48.5505 50.1811 49.0841 51.0752 49.4483C51.9694 49.8125 52.9286 50 53.8975 50C54.8663 50 55.8256 49.8125 56.7197 49.4483C57.6139 49.0841 58.4252 48.5505 59.1068 47.8783C59.7885 47.2061 60.3268 46.4087 60.6908 45.5321C61.0548 44.6555 61.2372 43.7171 61.2274 42.7713V40.1196C62.874 39.7683 64.3484 38.8785 65.4064 37.5976C66.4645 36.3166 67.0427 34.7213 67.0455 33.0758V23.9912C67.0423 22.3032 66.4337 20.6695 65.3255 19.3738C64.2173 18.0781 62.6793 17.2021 60.9786 16.8979L53.6163 4.44743C52.8331 3.08153 51.6867 1.94739 50.2982 1.16474C48.9097 0.382083 47.3304 -0.0200564 45.7272 0.000769717H21.3182C19.715 -0.0200564 18.1358 0.382083 16.7473 1.16474C15.3587 1.94739 14.2124 3.08153 13.4292 4.44743L6.06538 16.8979C4.36492 17.2024 2.82731 18.0785 1.71938 19.3742C0.611455 20.6699 0.00313887 22.3034 0 23.9912V33.0758C0.0027259 34.7213 0.58097 36.3166 1.63901 37.5976C2.69704 38.8785 4.17142 39.769 5.81806 40.1203Z" fill="#064658"/>
</svg>
