<svg width="61" height="35" viewBox="0 0 61 35" fill="none" xmlns="http://www.w3.org/2000/svg">
<path d="M58.8551 24.1419H57.8399V17.0193C57.8423 16.2157 57.5306 15.4434 56.9722 14.8694L49.6835 7.33607C49.3982 7.04337 49.058 6.81074 48.6826 6.6517C48.3072 6.49267 47.9041 6.4104 47.4969 6.40969H40.2343V4.07627C40.2343 3.26039 39.9125 2.47793 39.3397 1.90102C38.7669 1.32411 37.99 1 37.18 1H12.0167C11.277 1.00261 10.5634 1.27634 10.0093 1.77007C9.45528 2.2638 9.09857 2.94376 9.00584 3.683H2.99269C2.87763 3.683 2.76728 3.72904 2.68591 3.81098C2.60455 3.89293 2.55884 4.00408 2.55884 4.11997C2.55884 4.23586 2.60455 4.34701 2.68591 4.42895C2.76728 4.5109 2.87763 4.55694 2.99269 4.55694H13.7955C13.9106 4.55694 14.0209 4.5109 14.1023 4.42895C14.1837 4.34701 14.2294 4.23586 14.2294 4.11997C14.2294 4.00408 14.1837 3.89293 14.1023 3.81098C14.0209 3.72904 13.9106 3.683 13.7955 3.683H9.87354C9.96474 3.17681 10.229 2.71875 10.6205 2.38831C11.012 2.05786 11.506 1.87588 12.0167 1.87394H37.18C37.7599 1.87394 38.3161 2.10597 38.7261 2.51899C39.1362 2.93201 39.3666 3.49218 39.3666 4.07627V24.1769H25.3272C24.7537 23.2313 23.9486 22.45 22.9891 21.9078C22.0296 21.3657 20.9479 21.081 19.8477 21.081C18.7476 21.081 17.6658 21.3657 16.7063 21.9078C15.7468 22.45 14.9417 23.2313 14.3682 24.1769H9.83015V20.0082H19.2013C19.3163 20.0082 19.4267 19.9622 19.5081 19.8802C19.5894 19.7983 19.6351 19.6871 19.6351 19.5712C19.6351 19.4553 19.5894 19.3442 19.5081 19.2623C19.4267 19.1803 19.3163 19.1343 19.2013 19.1343H1.39613C1.28107 19.1343 1.17071 19.1803 1.08935 19.2623C1.00799 19.3442 0.96228 19.4553 0.96228 19.5712C0.96228 19.6871 1.00799 19.7983 1.08935 19.8802C1.17071 19.9622 1.28107 20.0082 1.39613 20.0082H8.96245V24.1419H7.81709C7.48341 24.1419 7.16339 24.2755 6.92744 24.5131C6.69149 24.7508 6.55893 25.0731 6.55893 25.4092V26.6939C6.55779 26.861 6.58948 27.0267 6.6522 27.1815C6.71492 27.3362 6.80741 27.477 6.92436 27.5956C7.0413 27.7142 7.18039 27.8083 7.3336 27.8725C7.48682 27.9367 7.65113 27.9698 7.81709 27.9698H13.4658C13.5736 29.6044 14.2942 31.1366 15.4815 32.2562C16.6689 33.3758 18.2343 33.9992 19.8607 34H20.121C21.7046 33.9367 23.2089 33.2858 24.3446 32.1726C25.4803 31.0593 26.1672 29.5624 26.273 27.9698H42.2039C42.3118 29.6044 43.0323 31.1366 44.2197 32.2562C45.407 33.3758 46.9724 33.9992 48.5989 34H48.8332C50.4212 33.943 51.932 33.2949 53.0731 32.1811C54.2143 31.0672 54.9048 29.5668 55.0112 27.9698H58.8551C59.1888 27.9698 59.5088 27.8363 59.7447 27.5987C59.9807 27.361 60.1132 27.0387 60.1132 26.7026V25.4004C60.1109 25.0659 59.9774 24.7458 59.7417 24.51C59.506 24.2743 59.1873 24.1419 58.8551 24.1419ZM40.2343 7.28364H47.4969C47.788 7.28454 48.0759 7.34372 48.3441 7.45775C48.6122 7.57177 48.8551 7.73836 49.0588 7.94783L56.3474 15.4812C56.7447 15.8929 56.9659 16.4452 56.9635 17.0193V24.1419H54.0827C53.5076 23.1984 52.702 22.4191 51.7427 21.8785C50.7834 21.3379 49.7025 21.0541 48.6032 21.0541C47.504 21.0541 46.4231 21.3379 45.4638 21.8785C44.5045 22.4191 43.6988 23.1984 43.1237 24.1419H40.2343V7.28364ZM42.6812 25.0159C42.4047 25.6769 42.2405 26.38 42.1953 27.0959H26.2643C26.2192 26.3866 26.0579 25.6897 25.7871 25.0334H42.6812V25.0159ZM7.42663 26.6851V25.4004C7.42663 25.2961 7.46776 25.1961 7.54099 25.1223C7.61422 25.0486 7.71353 25.0072 7.81709 25.0072H13.943C13.6658 25.671 13.5015 26.3771 13.4571 27.0959H7.81709C7.76432 27.0959 7.71209 27.0852 7.66355 27.0644C7.61501 27.0435 7.57116 27.013 7.53467 26.9746C7.49818 26.9362 7.46979 26.8907 7.45122 26.841C7.43265 26.7912 7.42428 26.7382 7.42663 26.6851ZM23.9129 31.3257C23.2905 31.9981 22.5131 32.5055 21.6497 32.8032C20.7862 33.1009 19.8631 33.1797 18.9622 33.0325C18.0613 32.8854 17.2103 32.5168 16.4845 31.9595C15.7587 31.4022 15.1804 30.6733 14.8009 29.8373C14.4213 29.0013 14.2522 28.084 14.3085 27.1665C14.3648 26.249 14.6447 25.3596 15.1236 24.5771C15.6024 23.7945 16.2653 23.1428 17.0538 22.6798C17.8422 22.2167 18.7318 21.9565 19.6438 21.9221H19.8434C20.9266 21.9179 21.9873 22.2328 22.8951 22.8281C23.8028 23.4234 24.5179 24.273 24.9522 25.2724C25.3866 26.2719 25.5213 27.3774 25.3397 28.453C25.1581 29.5285 24.6682 30.5271 23.9302 31.3257H23.9129ZM52.651 31.3257C51.9049 32.1408 50.9351 32.7141 49.8648 32.9729C48.7946 33.2317 47.6721 33.1644 46.6399 32.7794C45.6077 32.3944 44.7124 31.7091 44.0676 30.8106C43.4229 29.9121 43.0577 28.8409 43.0186 27.733C42.9795 26.6251 43.2682 25.5304 43.848 24.5881C44.4277 23.6457 45.2725 22.8982 46.2749 22.4403C47.2773 21.9825 48.3922 21.835 49.4781 22.0166C50.5639 22.1982 51.5716 22.7007 52.3734 23.4603C52.9064 23.9567 53.3369 24.5541 53.6402 25.2184C53.9436 25.8827 54.1139 26.6007 54.1413 27.3314C54.1687 28.062 54.0527 28.7909 53.8 29.4763C53.5472 30.1618 53.1627 30.7902 52.6684 31.3257H52.651ZM59.2195 26.6851C59.2195 26.7894 59.1784 26.8895 59.1051 26.9632C59.0319 27.037 58.9326 27.0784 58.829 27.0784H55.0025C54.9573 26.3691 54.7961 25.6722 54.5253 25.0159H58.8637C58.9673 25.0159 59.0666 25.0573 59.1398 25.1311C59.2131 25.2048 59.2542 25.3049 59.2542 25.4092V26.6939L59.2195 26.6851Z" fill="#064658" stroke="#064658"/>
<path d="M52.2238 17.8112C52.3345 17.8112 52.4406 17.7643 52.5189 17.6808C52.5972 17.5973 52.6412 17.4841 52.6412 17.366V15.5852C52.6463 15.3203 52.6016 15.0571 52.5099 14.8109C52.4181 14.5647 52.2811 14.3405 52.1069 14.1517L48.0751 9.69971C47.9013 9.50934 47.6937 9.35777 47.4644 9.25382C47.2351 9.14987 46.9887 9.09562 46.7395 9.09424H42.474C42.3633 9.09424 42.2572 9.14114 42.1789 9.22463C42.1006 9.30812 42.0566 9.42136 42.0566 9.53944V17.3304C42.0566 17.4485 42.1006 17.5617 42.1789 17.6452C42.2572 17.7287 42.3633 17.7756 42.474 17.7756H52.2238V17.8112ZM42.9248 10.0203H46.7729C46.9111 10.0195 47.048 10.0482 47.1756 10.1048C47.3032 10.1614 47.4189 10.2447 47.5158 10.3497L51.5476 14.8017C51.7351 15.0064 51.8399 15.2813 51.8398 15.5674V16.9475H42.9248V10.0203Z" fill="#064658" stroke="#064658"/>
<path d="M18.5873 9.09424H9.48828C9.3738 9.09424 9.26401 9.12704 9.18306 9.18542C9.10212 9.24381 9.05664 9.32299 9.05664 9.40556C9.05664 9.48813 9.10212 9.56731 9.18306 9.6257C9.26401 9.68408 9.3738 9.71688 9.48828 9.71688H18.5873C18.7017 9.71688 18.8115 9.68408 18.8925 9.6257C18.9734 9.56731 19.0189 9.48813 19.0189 9.40556C19.0189 9.32299 18.9734 9.24381 18.8925 9.18542C18.8115 9.12704 18.7017 9.09424 18.5873 9.09424Z" fill="#064658" stroke="#064658"/>
<path d="M14.6603 14.3868C14.6603 14.4693 14.706 14.5485 14.7873 14.6069C14.8687 14.6653 14.979 14.6981 15.094 14.6981H19.8303C19.9454 14.6981 20.0557 14.6653 20.137 14.6069C20.2184 14.5485 20.2641 14.4693 20.2641 14.3868C20.2641 14.3042 20.2184 14.225 20.137 14.1666C20.0557 14.1082 19.9454 14.0754 19.8303 14.0754H15.094C14.979 14.0754 14.8687 14.1082 14.7873 14.1666C14.706 14.225 14.6603 14.3042 14.6603 14.3868Z" fill="#064658" stroke="#064658"/>
<path d="M6.56604 14.3868C6.56604 14.4693 6.61003 14.5485 6.68834 14.6069C6.76665 14.6653 6.87286 14.6981 6.98361 14.6981H11.7522C11.863 14.6981 11.9692 14.6653 12.0475 14.6069C12.1258 14.5485 12.1698 14.4693 12.1698 14.3868C12.1698 14.3042 12.1258 14.225 12.0475 14.1666C11.9692 14.1082 11.863 14.0754 11.7522 14.0754H6.98361C6.87286 14.0754 6.76665 14.1082 6.68834 14.1666C6.61003 14.225 6.56604 14.3042 6.56604 14.3868Z" fill="#064658" stroke="#064658"/>
<path d="M19.8543 24.6628C19.2066 24.6856 18.5869 24.9322 18.1006 25.3605C17.6143 25.7888 17.2916 26.3725 17.1874 27.012C17.0831 27.6515 17.2038 28.3074 17.5289 28.868C17.854 29.4285 18.3634 29.8591 18.9703 30.0863C19.5772 30.3135 20.2441 30.3233 20.8574 30.1141C21.4708 29.9049 21.9926 29.4896 22.3341 28.9389C22.6756 28.3881 22.8156 27.7361 22.7303 27.0938C22.6449 26.4514 22.3395 25.8585 21.8661 25.416C21.5983 25.1622 21.2822 24.9648 20.9366 24.8354C20.591 24.706 20.223 24.6473 19.8543 24.6628ZM21.3333 28.7503C21.1218 28.9762 20.8579 29.1464 20.5649 29.246C20.2719 29.3455 19.9589 29.3714 19.6535 29.3213C19.3482 29.2711 19.0599 29.1465 18.8142 28.9585C18.5684 28.7704 18.3728 28.5247 18.2447 28.2431C18.1165 27.9615 18.0597 27.6526 18.0793 27.3438C18.0989 27.0351 18.1943 26.7359 18.3571 26.4727C18.5199 26.2096 18.745 25.9906 19.0125 25.8351C19.28 25.6797 19.5818 25.5925 19.891 25.5814H19.9645C20.3292 25.5844 20.6852 25.6931 20.9892 25.8945C21.2933 26.0959 21.5323 26.3813 21.6772 26.7159C21.8222 27.0505 21.8669 27.42 21.8058 27.7795C21.7448 28.1391 21.5806 28.4731 21.3333 28.7411V28.7503Z" fill="#064658" stroke="#064658"/>
<path d="M48.4959 24.6628C47.8482 24.6856 47.2285 24.9322 46.7422 25.3605C46.256 25.7888 45.9332 26.3725 45.829 27.012C45.7247 27.6515 45.8454 28.3074 46.1705 28.868C46.4956 29.4285 47.005 29.8591 47.6119 30.0863C48.2188 30.3135 48.8857 30.3233 49.499 30.1141C50.1124 29.9049 50.6342 29.4896 50.9757 28.9389C51.3172 28.3881 51.4572 27.7361 51.3719 27.0938C51.2865 26.4514 50.9811 25.8585 50.5077 25.416C50.2399 25.1622 49.9238 24.9648 49.5782 24.8354C49.2326 24.706 48.8646 24.6473 48.4959 24.6628ZM49.9749 28.7503C49.7634 28.9762 49.4995 29.1464 49.2065 29.246C48.9135 29.3455 48.6005 29.3714 48.2951 29.3213C47.9898 29.2711 47.7015 29.1465 47.4558 28.9585C47.21 28.7704 47.0144 28.5247 46.8863 28.2431C46.7581 27.9615 46.7013 27.6526 46.7209 27.3438C46.7405 27.0351 46.8359 26.7359 46.9987 26.4727C47.1615 26.2096 47.3866 25.9906 47.6541 25.8351C47.9216 25.6797 48.2234 25.5925 48.5326 25.5814H48.6061C48.9708 25.5844 49.3268 25.6931 49.6308 25.8945C49.9349 26.0959 50.1739 26.3813 50.3188 26.7159C50.4638 27.0505 50.5085 27.42 50.4474 27.7795C50.3864 28.1391 50.2222 28.4731 49.9749 28.7411V28.7503Z" fill="#064658" stroke="#064658"/>
<path d="M28.6924 20.8387C28.7867 20.8949 28.8937 20.9245 29.0027 20.9245C29.1117 20.9245 29.2187 20.8949 29.313 20.8387L35.5199 17.11C35.6138 17.054 35.6918 16.9736 35.7463 16.8768C35.8007 16.78 35.8297 16.6702 35.8302 16.5582V9.10079C35.8297 8.98885 35.8007 8.87901 35.7463 8.7822C35.6918 8.6854 35.6138 8.60501 35.5199 8.54904L29.313 4.82033C29.2184 4.76495 29.1115 4.73584 29.0027 4.73584C28.8939 4.73584 28.787 4.76495 28.6924 4.82033L22.4424 8.54904C22.3485 8.60501 22.2705 8.6854 22.216 8.7822C22.1616 8.87901 22.1326 8.98885 22.1321 9.10079V16.5493C22.1311 16.6628 22.1593 16.7744 22.2139 16.8729C22.2684 16.9714 22.3473 17.0532 22.4424 17.11L28.6924 20.8387ZM29.4337 19.7352V12.2511L35.0112 9.37666V16.4069L29.4337 19.7352ZM29.0027 5.66574L34.2612 8.79822L29.0027 11.4679L23.7442 8.79822L29.0027 5.66574ZM22.9683 9.41226L28.5458 12.2511V19.7352L22.9855 16.4069V9.37666L22.9683 9.41226Z" fill="#064658" stroke="#064658"/>
</svg>
