<svg width="58" height="44" viewBox="0 0 58 44" fill="none" xmlns="http://www.w3.org/2000/svg">
<path fill-rule="evenodd" clip-rule="evenodd" d="M15.4758 22.6265C15.4759 22.4529 15.5111 22.2811 15.5792 22.1207C15.6474 21.9604 15.7473 21.8148 15.8732 21.6922C15.9991 21.5696 16.1485 21.4724 16.3128 21.4062C16.4772 21.34 16.6534 21.3061 16.8312 21.3065H41.2078C41.5663 21.3065 41.91 21.4455 42.1635 21.6929C42.4169 21.9404 42.5593 22.276 42.5593 22.6259C42.5593 22.9758 42.4169 23.3114 42.1635 23.5589C41.91 23.8063 41.5663 23.9454 41.2078 23.9454H16.8312C16.4723 23.9459 16.128 23.8072 15.8738 23.5599C15.6197 23.3126 15.4765 22.9769 15.4758 22.6265ZM15.4758 26.5918C15.4761 26.4182 15.5113 26.2465 15.5796 26.0862C15.6478 25.926 15.7477 25.7805 15.8736 25.658C15.9994 25.5355 16.1488 25.4383 16.3131 25.3722C16.4774 25.306 16.6534 25.2721 16.8312 25.2723H41.2078C41.3878 25.2685 41.5668 25.2998 41.7342 25.3644C41.9017 25.429 42.0542 25.5256 42.1829 25.6485C42.3116 25.7715 42.4138 25.9182 42.4836 26.0803C42.5534 26.2423 42.5894 26.4163 42.5894 26.5921C42.5894 26.7678 42.5534 26.9418 42.4836 27.1039C42.4138 27.2659 42.3116 27.4127 42.1829 27.5356C42.0542 27.6585 41.9017 27.7551 41.7342 27.8197C41.5668 27.8843 41.3878 27.9157 41.2078 27.9118H16.8312C16.6534 27.9122 16.4772 27.8783 16.3128 27.8121C16.1485 27.7459 15.9991 27.6487 15.8732 27.5261C15.7473 27.4035 15.6474 27.2579 15.5792 27.0975C15.5111 26.9372 15.4759 26.7653 15.4758 26.5918ZM48.9028 22.9056C49.2477 22.9062 49.5848 23.0066 49.8713 23.1942C50.1579 23.3818 50.381 23.648 50.5126 23.9594C50.6442 24.2707 50.6783 24.6131 50.6106 24.9434C50.5429 25.2737 50.3764 25.5769 50.1323 25.8149C49.8881 26.0528 49.5772 26.2147 49.2388 26.2802C48.9004 26.3457 48.5497 26.3118 48.2311 26.1827C47.9124 26.0537 47.6401 25.8354 47.4485 25.5553C47.2569 25.2752 47.1546 24.9459 47.1546 24.6091C47.1546 24.3852 47.1998 24.1634 47.2877 23.9565C47.3756 23.7496 47.5045 23.5617 47.6668 23.4034C47.8292 23.2452 48.0219 23.1198 48.234 23.0343C48.4461 22.9489 48.6733 22.9051 48.9028 22.9056ZM48.9028 28.9516C49.7827 28.9517 50.6428 28.6971 51.3745 28.2199C52.1061 27.7428 52.6764 27.0645 53.0132 26.2708C53.35 25.4772 53.4381 24.6039 53.2665 23.7614C53.0949 22.9188 52.6712 22.1449 52.049 21.5375C51.4268 20.93 50.6341 20.5164 49.7711 20.3488C48.9081 20.1813 48.0136 20.2673 47.2007 20.5961C46.3878 20.9249 45.6931 21.4817 45.2043 22.196C44.7155 22.9103 44.4547 23.7501 44.4548 24.6091C44.4565 25.7603 44.9257 26.8639 45.7595 27.6779C46.5933 28.4919 47.7236 28.95 48.9028 28.9516ZM9.13623 22.9056C9.48143 22.9052 9.81899 23.0048 10.1062 23.1918C10.3934 23.3787 10.6174 23.6447 10.7497 23.9559C10.8821 24.2672 10.9169 24.6098 10.8498 24.9403C10.7827 25.2709 10.6167 25.5747 10.3727 25.8131C10.1287 26.0515 9.81782 26.214 9.47928 26.2799C9.14075 26.3457 8.7898 26.3121 8.47084 26.1832C8.15188 26.0543 7.87924 25.836 7.68742 25.5558C7.4956 25.2756 7.39321 24.9462 7.39321 24.6091C7.39439 24.158 7.57835 23.7256 7.90492 23.4065C8.23149 23.0873 8.67414 22.9072 9.13623 22.9056ZM9.13623 28.9516C10.0161 28.9517 10.8763 28.6971 11.608 28.2199C12.3396 27.7428 12.9099 27.0645 13.2467 26.2708C13.5835 25.4772 13.6716 24.6039 13.5 23.7614C13.3283 22.9188 12.9047 22.1449 12.2825 21.5375C11.6603 20.93 10.8676 20.5164 10.0046 20.3488C9.14159 20.1813 8.24708 20.2673 7.43419 20.5961C6.6213 20.9249 5.92654 21.4817 5.43777 22.196C4.94901 22.9103 4.6882 23.7501 4.68832 24.6091C4.68917 25.7606 5.15806 26.8646 5.99202 27.6788C6.82598 28.493 7.95683 28.9508 9.13623 28.9516ZM2.88635 20.7021V28.5168C2.88736 29.4619 3.27265 30.368 3.95754 31.036C4.64244 31.7039 5.57092 32.0791 6.539 32.0791H51.5013C52.4693 32.0791 53.3978 31.7039 54.0827 31.036C54.7676 30.368 55.1529 29.4619 55.1539 28.5168V20.7021C55.1539 19.7563 54.7691 18.8493 54.0841 18.1805C53.3991 17.5117 52.47 17.136 51.5013 17.136H6.53708C5.56833 17.136 4.63927 17.5117 3.95426 18.1805C3.26926 18.8493 2.88442 19.7563 2.88442 20.7021H2.88635ZM14.0782 5.21096C14.514 4.43742 15.1584 3.79521 15.9417 3.35403C16.7249 2.91286 17.617 2.68958 18.521 2.70845H39.518C40.4221 2.68896 41.3145 2.91197 42.0978 3.35321C42.8811 3.79445 43.5255 4.43701 43.9608 5.21096L49.4558 14.5003H8.58321L14.0782 5.21096ZM46.5484 40.3762C45.5926 40.3754 44.6761 40.0046 43.9998 39.3452C43.3235 38.6857 42.9426 37.7914 42.9406 36.8583V34.7193H50.1517V36.857C50.1507 37.7897 49.7707 38.6839 49.0952 39.3435C48.4197 40.003 47.5037 40.3739 46.5484 40.3749V40.3762ZM15.0984 36.8289C15.0858 37.7543 14.7003 38.6377 14.0255 39.2878C13.3507 39.9379 12.4408 40.3024 11.4928 40.3024C10.5448 40.3024 9.63495 39.9379 8.96015 39.2878C8.28535 38.6377 7.89992 37.7543 7.88728 36.8289V34.7193H15.0984V36.8289ZM5.18752 34.5766V36.8289C5.17912 37.6425 5.336 38.4497 5.64911 39.2037C5.96221 39.9578 6.42532 40.6438 7.01166 41.222C7.598 41.8003 8.29593 42.2593 9.0651 42.5725C9.83427 42.8858 10.6594 43.0471 11.4928 43.0471C12.3263 43.0471 13.1514 42.8858 13.9206 42.5725C14.6897 42.2593 15.3877 41.8003 15.974 41.222C16.5603 40.6438 17.0235 39.9578 17.3366 39.2037C17.6497 38.4497 17.8066 37.6425 17.7982 36.8289V34.7193H40.2408V36.857C40.2324 37.6707 40.3893 38.4778 40.7024 39.2319C41.0155 39.986 41.4786 40.6719 42.065 41.2502C42.6513 41.8284 43.3492 42.2874 44.1184 42.6007C44.8876 42.914 45.7127 43.0753 46.5462 43.0753C47.3796 43.0753 48.2047 42.914 48.9739 42.6007C49.7431 42.2874 50.441 41.8284 51.0273 41.2502C51.6137 40.6719 52.0768 39.986 52.3899 39.2319C52.703 38.4778 52.8599 37.6707 52.8515 36.857V34.576C54.2679 34.2738 55.5362 33.5084 56.4464 32.4065C57.3565 31.3046 57.8539 29.9323 57.8563 28.5168V20.7021C57.8535 19.25 57.33 17.8447 56.3767 16.7301C55.4234 15.6155 54.1004 14.862 52.6374 14.6004L46.3042 3.89026C45.6306 2.71529 44.6445 1.73969 43.45 1.06644C42.2556 0.393187 40.8971 0.0472614 39.518 0.0651763H18.521C17.1419 0.0472614 15.7834 0.393187 14.589 1.06644C13.3945 1.73969 12.4084 2.71529 11.7347 3.89026L5.40027 14.6004C3.93751 14.8623 2.61483 15.6159 1.66178 16.7305C0.708722 17.845 0.185439 19.2502 0.182739 20.7021V28.5168C0.185084 29.9323 0.682499 31.3046 1.59264 32.4065C2.50277 33.5084 3.77106 34.2744 5.18752 34.5766Z" fill="#064658"/>
</svg>
