<svg width="61" height="50" viewBox="0 0 61 50" fill="none" xmlns="http://www.w3.org/2000/svg">
<path fill-rule="evenodd" clip-rule="evenodd" d="M58.4704 44.0678C59.4088 44.0678 60.1695 43.3079 60.1695 42.3761V10.9286C60.1695 9.99428 59.633 8.70032 58.9714 8.03877L52.1307 1.19809C51.469 0.536403 50.1685 0 49.2439 0H29.6549C28.7222 0 27.9661 0.757543 27.9661 1.69905V2.53824C27.9661 3.4766 27.2148 4.23729 26.2662 4.23729H23.7338C22.795 4.23729 22.0339 4.9934 22.0339 5.93398V48.3033C22.0339 49.2404 22.7894 50 23.7265 50H54.2396C55.1744 50 55.9322 49.2487 55.9322 48.3001V45.7677C55.9322 44.8289 56.6897 44.0678 57.6313 44.0678H58.4704ZM56.7823 38.9767C56.7808 39.9163 56.0188 40.678 55.0919 40.678H33.0437C32.1116 40.678 31.3566 39.9162 31.3574 38.9788L31.3863 5.08825C31.3871 4.14985 32.151 3.38897 33.0911 3.38878L47.4492 3.38583C48.3899 3.38564 49.1525 4.14511 49.1525 5.07915V7.62523C49.1525 9.49843 50.6685 11.0169 52.5405 11.0169H55.1229C56.0634 11.0169 56.8246 11.78 56.8232 12.7182L56.7823 38.9767ZM51.701 46.6102C52.1657 46.6102 52.5424 46.235 52.5424 45.7636V44.9144C52.5424 44.4468 52.1563 44.0678 51.6964 44.0678H29.6553C28.7224 44.0678 27.9661 43.3067 27.9661 42.3712V8.47425C27.9661 8.00639 27.591 7.62712 27.1195 7.62712H26.2703C25.8028 7.62712 25.4237 8.01295 25.4237 8.47759V44.91C25.4237 45.849 26.1773 46.6102 27.1201 46.6102H51.701ZM16.9492 19.4915C17.8852 19.4915 18.6441 18.7327 18.6441 17.7966C18.6441 16.8605 17.8852 16.1017 16.9492 16.1017H11.0169C10.0809 16.1017 9.32203 16.8605 9.32203 17.7966C9.32203 18.7327 10.0809 19.4915 11.0169 19.4915H16.9492ZM16.9492 26.2712C17.8852 26.2712 18.6441 25.5123 18.6441 24.5763C18.6441 23.6402 17.8852 22.8814 16.9492 22.8814H1.69492C0.758839 22.8814 0 23.6402 0 24.5763C0 25.5123 0.758839 26.2712 1.69492 26.2712H16.9492ZM16.9492 33.0508C17.8852 33.0508 18.6441 32.292 18.6441 31.3559C18.6441 30.4199 17.8852 29.661 16.9492 29.661H6.77966C5.84359 29.661 5.08475 30.4199 5.08475 31.3559C5.08475 32.292 5.84359 33.0508 6.77966 33.0508H16.9492Z" fill="#064658"/>
</svg>
