<svg width="164" height="190" viewBox="0 0 164 190" fill="none" xmlns="http://www.w3.org/2000/svg">
<path d="M77.2598 112.953C78.2491 108.343 81.9115 105.228 85.4266 105.986C88.9417 106.743 90.9833 111.1 89.9941 115.71C89.0048 120.32 85.3424 123.435 81.8273 122.677C78.3123 121.919 76.2706 117.562 77.2598 112.953ZM62.6734 137.011C62.5453 137.016 62.4198 137.048 62.3048 137.105C62.1897 137.161 62.0876 137.241 62.0049 137.339C61.9222 137.436 61.8608 137.55 61.8244 137.673C61.788 137.796 61.7775 137.925 61.7936 138.052C61.8097 138.18 61.852 138.302 61.9178 138.412C61.9836 138.522 62.0715 138.617 62.1759 138.691C62.2804 138.765 62.3991 138.817 62.5246 138.843C62.6501 138.869 62.7796 138.869 62.9049 138.842C63.0261 138.829 63.1435 138.792 63.2499 138.733C63.3564 138.673 63.4498 138.593 63.5245 138.497C63.5991 138.4 63.6536 138.29 63.6846 138.172C63.7156 138.054 63.7224 137.931 63.7047 137.811C63.6732 137.568 63.5471 137.348 63.3539 137.198C63.1607 137.048 62.916 136.981 62.6734 137.011ZM65.557 132.612C65.2682 132.649 65.0053 132.797 64.8244 133.025C64.6435 133.253 64.559 133.543 64.5888 133.833C64.6769 134.059 64.8377 134.249 65.0459 134.374C65.2542 134.499 65.498 134.551 65.7391 134.522C65.9801 134.493 66.2048 134.385 66.3775 134.214C66.5503 134.044 66.6615 133.821 66.6936 133.58C66.6573 133.307 66.521 133.057 66.3112 132.878C66.1013 132.699 65.8326 132.604 65.557 132.612ZM67.8092 126.76C67.6248 126.773 67.445 126.824 67.2806 126.908C67.1162 126.993 66.9706 127.11 66.8527 127.252C66.7347 127.394 66.6469 127.559 66.5943 127.736C66.5418 127.913 66.5257 128.1 66.5471 128.283C66.5684 128.467 66.6268 128.644 66.7185 128.805C66.8103 128.965 66.9337 129.105 67.0811 129.217C67.2286 129.328 67.3971 129.408 67.5765 129.453C67.7559 129.497 67.9424 129.505 68.1249 129.476C68.4881 129.428 68.8185 129.241 69.0464 128.955C69.2742 128.668 69.3816 128.304 69.3457 127.939C69.3223 127.761 69.2641 127.589 69.1742 127.433C69.0843 127.277 68.9646 127.141 68.8218 127.031C68.6791 126.922 68.5162 126.841 68.3425 126.795C68.1687 126.748 67.9875 126.737 67.8092 126.76ZM111.274 136.59C97.6346 133.769 81.4695 137.285 74.5236 146.146C70.9243 150.755 66.6304 160.459 71.5557 165.826C77.4282 172.141 88.5417 174.772 101.655 173.572C114.768 172.372 129.354 165.679 130.659 157.554C131.964 149.429 122.935 138.926 111.274 136.59ZM70.5875 138.442C70.7419 138.427 70.8916 138.38 71.0277 138.306C71.1638 138.231 71.2835 138.13 71.3797 138.008C71.4759 137.886 71.5466 137.747 71.5877 137.597C71.6288 137.447 71.6394 137.291 71.6189 137.137C71.5647 136.843 71.4006 136.58 71.1598 136.403C70.9191 136.225 70.6198 136.145 70.3226 136.18C70.0254 136.215 69.7526 136.361 69.5594 136.59C69.3663 136.819 69.2673 137.112 69.2825 137.411C69.2981 137.565 69.3445 137.715 69.4191 137.851C69.4937 137.987 69.5948 138.107 69.7165 138.203C69.8383 138.299 69.9781 138.37 70.1277 138.411C70.2774 138.452 70.4337 138.463 70.5875 138.442ZM90.0783 50.9654C91.7592 50.9604 93.4177 50.5798 94.9327 49.8514C96.4476 49.1231 97.7806 48.0654 98.8344 46.7558C99.8335 45.4973 100.559 44.0443 100.965 42.4895C101.371 40.9347 101.448 39.3124 101.192 37.7261C101.159 37.5469 101.091 37.376 100.991 37.2235C100.892 37.071 100.763 36.9399 100.612 36.838C100.461 36.736 100.291 36.6653 100.112 36.6298C99.9335 36.5944 99.7495 36.595 99.571 36.6316C99.2118 36.7029 98.8953 36.9132 98.6903 37.2167C98.4853 37.5202 98.4085 37.8924 98.4765 38.2523C98.6655 39.4476 98.6041 40.6692 98.2961 41.8395C97.9881 43.0098 97.4403 44.1034 96.6874 45.0509C95.8797 46.0452 94.8588 46.8451 93.7002 47.3916C92.5417 47.9381 91.275 48.2172 89.9941 48.2081C89.6578 48.2498 89.3483 48.4129 89.1238 48.6668C88.8994 48.9207 88.7756 49.2479 88.7756 49.5868C88.7756 49.9257 88.8994 50.2529 89.1238 50.5068C89.3483 50.7607 89.6578 50.9238 89.9941 50.9654H90.0783ZM130.954 132.401C130.73 132.325 130.486 132.337 130.271 132.434C130.055 132.532 129.886 132.709 129.796 132.928C129.762 133.037 129.751 133.152 129.765 133.266C129.778 133.38 129.817 133.49 129.877 133.587C129.936 133.685 130.017 133.769 130.112 133.833C130.207 133.897 130.315 133.94 130.428 133.959C130.646 134.034 130.884 134.021 131.093 133.923C131.301 133.824 131.463 133.648 131.543 133.433C131.578 133.326 131.591 133.214 131.579 133.102C131.568 132.991 131.534 132.883 131.478 132.786C131.423 132.689 131.347 132.604 131.257 132.538C131.167 132.472 131.063 132.425 130.954 132.401ZM125.566 121.456C128.765 120.909 130.765 116.952 130.028 112.658C129.291 108.364 126.071 105.291 122.872 105.838C119.672 106.386 117.673 110.343 118.43 114.658C119.188 118.973 122.366 122.088 125.566 121.456ZM59.4951 132.443C59.2526 132.475 59.0324 132.601 58.8826 132.794C58.7328 132.987 58.6654 133.232 58.6952 133.475C58.7269 133.719 58.8522 133.941 59.0447 134.094C59.2372 134.247 59.4818 134.32 59.7266 134.296C59.8482 134.28 59.9657 134.241 60.0722 134.181C60.1788 134.12 60.2723 134.039 60.3476 133.943C60.4228 133.846 60.4783 133.735 60.5108 133.617C60.5433 133.499 60.5522 133.375 60.537 133.254C60.5218 133.132 60.4828 133.015 60.4222 132.908C60.3616 132.802 60.2806 132.708 60.1839 132.633C60.0871 132.558 59.9765 132.502 59.8583 132.47C59.7401 132.437 59.6167 132.428 59.4951 132.443ZM73.1765 134.717C73.4225 134.676 73.6511 134.564 73.8334 134.394C74.0158 134.224 74.1437 134.004 74.2011 133.761C74.2585 133.518 74.2427 133.264 74.1559 133.031C74.0691 132.797 73.915 132.594 73.7131 132.448C73.5112 132.301 73.2705 132.218 73.0214 132.208C72.7723 132.199 72.5258 132.263 72.3132 132.393C72.1005 132.523 71.931 132.713 71.8262 132.939C71.7214 133.166 71.6859 133.418 71.7241 133.664C71.7859 133.992 71.9708 134.284 72.2409 134.479C72.511 134.675 72.8457 134.76 73.1765 134.717ZM74.9445 129.118C75.1902 129.083 75.4202 128.977 75.6059 128.813C75.7917 128.648 75.9249 128.433 75.9889 128.193C76.053 127.954 76.0451 127.701 75.9662 127.465C75.8873 127.23 75.7409 127.024 75.5453 126.871C75.3496 126.719 75.1134 126.627 74.8661 126.608C74.6188 126.589 74.3714 126.643 74.1546 126.764C73.9379 126.884 73.7615 127.066 73.6475 127.286C73.5334 127.507 73.4867 127.756 73.5132 128.002C73.5262 128.175 73.5741 128.343 73.6538 128.497C73.7336 128.651 73.8436 128.787 73.9774 128.897C74.1111 129.007 74.2657 129.089 74.4319 129.138C74.5981 129.187 74.7725 129.201 74.9445 129.181V129.118ZM77.2388 133.327C77.2612 133.505 77.3359 133.673 77.4535 133.808C77.571 133.943 77.7261 134.041 77.8991 134.088C78.0721 134.135 78.2552 134.129 78.4251 134.072C78.595 134.015 78.7442 133.909 78.8536 133.767C78.9631 133.625 79.0279 133.454 79.0398 133.275C79.0518 133.096 79.0104 132.917 78.9208 132.762C78.8313 132.607 78.6976 132.482 78.5368 132.402C78.376 132.323 78.1953 132.294 78.0176 132.317C77.8849 132.33 77.7568 132.372 77.6424 132.441C77.528 132.509 77.4301 132.602 77.3557 132.713C77.2813 132.823 77.2322 132.949 77.212 133.081C77.1918 133.212 77.201 133.347 77.2388 133.475V133.327ZM141.184 129.854C141.108 129.825 141.027 129.811 140.945 129.815C140.864 129.818 140.784 129.838 140.711 129.873C140.638 129.909 140.573 129.959 140.52 130.021C140.468 130.083 140.428 130.155 140.405 130.233C140.35 130.39 140.36 130.561 140.431 130.711C140.501 130.86 140.628 130.976 140.784 131.033C140.859 131.063 140.94 131.076 141.022 131.073C141.103 131.07 141.183 131.05 141.256 131.014C141.329 130.979 141.394 130.928 141.447 130.866C141.5 130.804 141.539 130.732 141.562 130.654C141.611 130.498 141.6 130.329 141.529 130.18C141.459 130.032 141.336 129.916 141.184 129.854ZM142.994 134.359C142.821 134.313 142.637 134.335 142.48 134.421C142.323 134.508 142.205 134.651 142.152 134.822C142.122 134.903 142.108 134.99 142.112 135.077C142.116 135.163 142.138 135.248 142.175 135.327C142.212 135.405 142.265 135.475 142.329 135.533C142.394 135.591 142.47 135.636 142.552 135.664C142.725 135.71 142.909 135.688 143.066 135.601C143.223 135.515 143.34 135.372 143.394 135.201C143.452 135.044 143.45 134.87 143.388 134.715C143.326 134.559 143.208 134.432 143.057 134.359H142.994ZM145.667 131.454C145.554 131.415 145.434 131.4 145.314 131.408C145.195 131.417 145.079 131.45 144.972 131.505C144.866 131.56 144.772 131.637 144.696 131.729C144.62 131.822 144.564 131.929 144.53 132.044C144.486 132.157 144.464 132.278 144.467 132.399C144.469 132.521 144.496 132.641 144.545 132.752C144.594 132.864 144.664 132.965 144.752 133.049C144.84 133.133 144.943 133.199 145.056 133.243C145.175 133.289 145.302 133.308 145.428 133.3C145.555 133.292 145.678 133.257 145.79 133.197C145.902 133.137 146 133.054 146.076 132.953C146.153 132.852 146.207 132.736 146.235 132.612C146.308 132.391 146.297 132.15 146.204 131.936C146.11 131.723 145.942 131.551 145.73 131.454H145.667ZM159.79 80.7488C162.532 89.0345 163.953 97.7002 164 106.428C164.021 152.271 127.376 189.442 82.2483 189.442C37.1207 189.442 0.159912 151.303 0.159912 105.46C1.88587 105.796 3.84337 106.049 5.9061 106.28C9.27408 106.523 12.659 106.36 15.9882 105.796C17.5143 104.789 19.2624 104.168 21.0819 103.986C22.9089 104.01 24.699 104.503 26.2809 105.417C27.1017 105.775 27.8805 106.07 28.6593 106.322C28.5945 104.521 29.0474 102.739 29.9643 101.187C31.9847 97.6541 35.3223 95.0657 39.2466 93.9882C42.5512 89.8838 50.0654 89.1471 54.8434 89.6312C54.773 88.1989 55.2467 86.7929 56.1694 85.6951C57.3313 84.6008 58.7074 83.759 60.2108 83.2228C61.7141 82.6867 63.3123 82.4678 64.9045 82.58C65.7885 80.8751 67.7881 78.3703 72.8818 79.4017L73.8921 79.5701C73.5562 78.8841 73.1838 78.2167 72.7766 77.5705C71.4328 78.088 70.0068 78.359 68.5669 78.3703C67.7049 78.3667 66.8452 78.2822 65.999 78.1178C62.8873 77.4784 60.0537 75.8813 57.8954 73.5503C56.1471 75.2477 53.8072 76.1987 51.3704 76.2024H50.3391H50.1286C50.117 77.1901 49.8929 78.1637 49.4716 79.0572C49.0503 79.9506 48.4417 80.7429 47.687 81.3802C46.3656 82.5211 44.6518 83.1024 42.909 83.001C43.086 84.1998 42.9257 85.4242 42.446 86.5371C42.0715 87.5402 41.4481 88.4315 40.6343 89.1274C39.8206 89.8233 38.8433 90.3009 37.7943 90.5152C37.226 90.5929 36.6472 90.5278 36.1104 90.3258C35.6492 91.0164 35.0537 91.6071 34.3594 92.0627C33.6651 92.5184 32.8862 92.8296 32.0691 92.9779C30.5535 93.3367 28.9635 93.2116 27.5227 92.62C27.3919 93.5023 27.0576 94.342 26.5461 95.0726C26.0346 95.8033 25.3601 96.4048 24.5759 96.8297C23.6879 97.3252 22.6882 97.586 21.6713 97.5874C20.3313 97.5845 19.0295 97.1407 17.9668 96.3245C17.1376 96.7747 16.2146 97.0245 15.2715 97.0537C14.3285 97.0829 13.3918 96.8909 12.5363 96.4929C11.7651 96.118 11.0872 95.5758 10.5519 94.9059C10.0167 94.2359 9.63758 93.455 9.44221 92.62C8.22557 92.1491 7.16897 91.3401 6.39699 90.2884C5.62501 89.2368 5.16986 87.9863 5.08521 86.6844C4.94884 85.4445 5.1696 84.1914 5.72149 83.0727C6.27338 81.954 7.13343 81.0163 8.20036 80.3699C7.54283 79.8745 7.00217 79.2407 6.61663 78.5132C6.23109 77.7858 6.01009 76.9825 5.96924 76.1603C5.95609 75.2563 6.1372 74.36 6.50033 73.5321C6.86346 72.7042 7.40014 71.9639 8.07407 71.3613C7.85195 70.685 7.80495 69.9634 7.93747 69.264C8.06999 68.5646 8.37769 67.9102 8.83181 67.3621C9.55713 66.4152 10.5804 65.7404 11.7365 65.4467C11.5594 65.0627 11.4253 64.6603 11.3366 64.2469C10.2763 64.1621 9.26038 63.7847 8.40194 63.1566C7.54349 62.5286 6.87622 61.6746 6.4744 60.6898C6.10676 59.64 6.04818 58.5069 6.30563 57.4248C6.56308 56.3428 7.12573 55.3574 7.92674 54.5858C6.91309 54.3247 5.97004 53.8418 5.16563 53.1721C4.36122 52.5024 3.7155 51.6624 3.27506 50.7129C2.7989 49.7113 2.58939 48.6038 2.66683 47.4976C2.74427 46.3913 3.10602 45.3238 3.71708 44.3984C3.52631 43.4617 3.53649 42.4951 3.74693 41.5627C3.95737 40.6302 4.3633 39.753 4.93788 38.989C5.60852 37.9089 6.5017 36.9841 7.55787 36.2764C8.61405 35.5686 9.80895 35.0941 11.0629 34.8845C11.7626 32.8029 13.2102 31.0552 15.1253 29.9803C18.385 28.0627 22.2032 27.3199 25.9441 27.8755C27.2444 22.6519 30.3827 18.0715 34.7844 14.9728C38.3032 12.3243 42.6348 10.9846 47.0345 11.1842C47.0247 10.932 47.0907 10.6828 47.2239 10.4685C50.8442 4.63813 57.0956 2.42806 64.4625 4.21717L64.7782 4.38555C67.6376 2.09187 71.0762 0.634813 74.713 0.175892C78.8751 -0.399448 83.1095 0.445961 86.7316 2.5754C90.4992 0.870486 97.8872 0.00750563 102.244 4.00668C104.399 3.74238 106.586 3.91559 108.673 4.51595C110.759 5.11631 112.704 6.13148 114.389 7.5007C117.269 5.53122 120.726 4.58155 124.208 4.80276C127.69 5.02398 130.998 6.40338 133.606 8.7215C135.228 10.0444 136.485 11.7595 137.259 13.7044C138.033 15.6493 138.297 17.7595 138.026 19.835C137.758 21.3488 137.192 22.7944 136.361 24.0879C135.53 25.3814 134.451 26.4971 133.185 27.3703C134.911 27.7145 136.515 28.5091 137.835 29.6735C139.155 30.838 140.143 32.3308 140.699 34.0005C141.051 35.4855 140.966 37.0405 140.455 38.4783C139.943 39.916 139.027 41.1752 137.816 42.1041C138.148 42.4084 138.438 42.7552 138.679 43.1355C140.014 42.8645 141.391 42.8666 142.726 43.1415C144.06 43.4164 145.326 43.9585 146.446 44.7351C149.109 46.6284 150.935 49.4802 151.539 52.6914C152.366 53.0004 153.1 53.5138 153.675 54.1837C154.249 54.8537 154.644 55.6582 154.823 56.5222C154.946 57.3835 154.842 58.2621 154.521 59.0707C154.2 59.8793 153.672 60.5899 152.992 61.1318C153.451 62.2217 153.586 63.4211 153.381 64.586C153.176 65.7508 152.638 66.8317 151.834 67.6988C151.23 68.3254 150.456 68.7625 149.608 68.9569C148.759 69.1513 147.873 69.0944 147.056 68.7934C146.348 69.8034 145.427 70.6455 144.358 71.2602C143.288 71.8748 142.097 72.2471 140.868 72.3505H140.005C138.213 72.3787 136.471 71.7583 135.101 70.6035C133.811 71.3726 132.372 71.857 130.88 72.024C129.388 72.191 127.877 72.0368 126.45 71.5717C125.377 71.1773 124.396 70.5685 123.566 69.7826C121.655 71.3789 119.257 72.2771 116.768 72.3295C115.774 72.3616 114.781 72.2481 113.821 71.9927C112.364 71.5512 111.01 70.8254 109.836 69.8571C108.661 68.8889 107.691 67.6975 106.98 66.3518C106.325 66.8511 105.546 67.1638 104.728 67.2568C103.542 67.3316 102.353 67.1711 101.23 66.7846C100.106 66.3981 99.0706 65.7932 98.1819 65.0047C96.587 68.11 93.9703 70.5706 90.7729 71.9716C89.0825 72.6924 87.2642 73.0646 85.4266 73.0662C84.9008 73.0976 84.3737 73.0976 83.848 73.0662C83.7746 74.6346 83.8521 76.2064 84.0795 77.7599C86.7366 75.502 90.1805 74.3894 93.6565 74.6658C95.8748 74.8169 97.9722 75.7317 99.5921 77.2548C105.317 73.9081 115.715 73.0451 120.872 78.5177C125.439 77.4442 130.512 80.3489 133.501 83.3167L134.196 84.0534C142.547 82.5574 150.811 80.604 158.948 78.202L159.348 79.507L159.727 80.7909L159.79 80.7488ZM122.408 67.5515C121.707 66.497 121.214 65.3182 120.956 64.0785H120.682C119.531 63.6764 118.521 62.9497 117.774 61.986C117.027 61.0224 116.575 59.863 116.473 58.6481C115.453 59.2862 114.326 59.7354 113.147 59.9741C112.549 60.0763 111.944 60.1256 111.337 60.1215C109.402 60.033 107.506 59.5461 105.767 58.6914C104.029 57.8367 102.486 56.6325 101.234 55.1541H100.581C100.631 57.6245 100.209 60.0818 99.3395 62.3947C100.034 63.1124 100.869 63.679 101.793 64.0593C102.716 64.4396 103.708 64.6253 104.707 64.6048C105.114 64.5779 105.505 64.4401 105.839 64.2063C106.173 63.9725 106.437 63.6517 106.601 63.2787C106.69 63.0849 106.836 62.9232 107.02 62.8159C107.204 62.7086 107.417 62.6609 107.629 62.6793C107.841 62.6978 108.042 62.7815 108.205 62.919C108.368 63.0564 108.484 63.2409 108.538 63.4471C108.995 64.8586 109.79 66.1371 110.854 67.1715C111.918 68.2059 113.218 68.965 114.642 69.3827C115.987 69.7437 117.4 69.7653 118.756 69.4457C120.111 69.1261 121.366 68.4753 122.408 67.5515ZM139.963 45.8718C139.975 45.9907 139.975 46.1106 139.963 46.2296C141.119 47.3425 141.898 48.7885 142.192 50.3658C142.487 51.9431 142.281 53.5729 141.604 55.0278C141.294 55.721 140.832 56.3359 140.253 56.8276C139.674 57.3193 138.992 57.6752 138.258 57.8693C138.415 58.927 138.273 60.0075 137.849 60.9892C137.425 61.9709 136.736 62.8148 135.858 63.426C134.74 64.3788 133.353 64.9596 131.889 65.0879C130.426 65.2161 128.959 64.8854 127.692 64.1417C126.708 64.9077 125.486 65.3027 124.24 65.2572C124.008 65.2572 123.777 65.2572 123.545 65.2572C123.845 66.2681 124.385 67.1918 125.117 67.9502C125.85 68.7086 126.755 69.2794 127.755 69.6142C129.007 70.0374 130.343 70.1551 131.65 69.9573C132.957 69.7596 134.198 69.2523 135.269 68.4776C135.368 68.3804 135.487 68.307 135.618 68.2632C135.75 68.2194 135.889 68.2064 136.027 68.2251C136.169 68.2326 136.309 68.2702 136.436 68.3355C136.563 68.4008 136.674 68.4923 136.763 68.6039C137.346 69.2377 138.073 69.7202 138.884 70.0099C139.694 70.2996 140.563 70.3878 141.415 70.2667C142.464 70.1837 143.476 69.8398 144.358 69.2663C145.24 68.6929 145.965 67.9081 146.467 66.9832C146.53 66.8629 146.617 66.7564 146.721 66.6697C146.826 66.583 146.947 66.5179 147.077 66.4781C147.203 66.4211 147.339 66.3916 147.477 66.3916C147.615 66.3916 147.751 66.4211 147.877 66.4781C148.369 66.8041 148.96 66.9487 149.548 66.8873C150.135 66.8259 150.683 66.5621 151.097 66.1413C151.681 65.4719 152.038 64.635 152.118 63.7504C152.197 62.8657 151.995 61.9786 151.539 61.216C151.42 60.9912 151.387 60.7309 151.445 60.4832C151.503 60.2356 151.648 60.0174 151.855 59.8689C152.37 59.559 152.787 59.1103 153.059 58.5743C153.331 58.0382 153.446 57.4365 153.392 56.8379C153.253 56.2461 152.95 55.7053 152.518 55.2773C152.086 54.8492 151.543 54.5513 150.95 54.4174C150.75 54.3702 150.569 54.2618 150.433 54.1071C150.297 53.9524 150.213 53.7592 150.192 53.5544C150.012 52.1384 149.547 50.7738 148.823 49.5435C148.099 48.3132 147.133 47.243 145.983 46.398C144.252 45.2 142.123 44.7243 140.047 45.0719C140.055 45.3411 140.027 45.6102 139.963 45.8718ZM136.974 48.4186C136.963 49.6982 136.619 50.9529 135.977 52.0598C135.335 53.1667 134.417 54.0879 133.311 54.7331C131.384 56.0929 129.082 56.8229 126.723 56.8229C124.364 56.8229 122.063 56.0929 120.135 54.7331C119.765 55.4299 119.313 56.08 118.788 56.6695C118.831 56.8281 118.831 56.9951 118.788 57.1536C118.594 58.1598 118.773 59.2024 119.292 60.0859C119.811 60.9694 120.635 61.6331 121.609 61.9527C122.38 62.3892 123.269 62.5712 124.149 62.473C125.03 62.3747 125.857 62.0011 126.513 61.4054C126.61 61.2945 126.73 61.2053 126.864 61.1436C126.998 61.082 127.144 61.0493 127.292 61.0476C127.44 61.0324 127.59 61.049 127.732 61.0961C127.873 61.1433 128.003 61.22 128.113 61.3212C129.005 62.0664 130.139 62.4604 131.302 62.4294C132.464 62.3984 133.575 61.9445 134.427 61.1528C135.144 60.7106 135.674 60.02 135.914 59.2126C136.155 58.4052 136.09 57.5375 135.732 56.7748C135.632 56.6046 135.583 56.4093 135.591 56.2121C135.599 56.015 135.663 55.8242 135.776 55.6624C135.889 55.5007 136.046 55.3748 136.229 55.2996C136.411 55.2244 136.611 55.2031 136.805 55.2383C137.402 55.278 137.996 55.1258 138.499 54.8039C139.003 54.4819 139.39 54.0072 139.605 53.4491C140.06 52.4722 140.218 51.3835 140.061 50.3174C139.904 49.2513 139.438 48.2545 138.721 47.4504C138.232 47.9187 137.63 48.2523 136.974 48.4186ZM116.283 8.42683C118.732 11.5628 120.045 15.4358 120.009 19.414C120.667 19.7987 121.238 20.315 121.687 20.9308C122.136 21.5465 122.454 22.2483 122.619 22.9923C122.878 24.0924 122.912 25.2334 122.72 26.3471C122.529 27.4609 122.115 28.5247 121.503 29.4751C122.659 32.3235 123.159 35.3957 122.966 38.4637C122.773 41.5317 121.892 44.5168 120.388 47.1978C118.157 51.0075 113.631 55.1751 104.686 55.2593C105.806 56.2956 107.142 57.0709 108.598 57.5294C110.054 57.988 111.593 58.1184 113.105 57.9114C114.407 57.6744 115.621 57.0923 116.62 56.2259C117.62 55.3596 118.369 54.2407 118.788 52.9861C118.846 52.8334 118.939 52.6965 119.059 52.5868C119.18 52.477 119.325 52.3974 119.483 52.3546C119.639 52.3147 119.803 52.313 119.961 52.3497C120.118 52.3863 120.265 52.4602 120.388 52.5651C121.966 53.972 123.975 54.8008 126.087 54.9155C128.198 55.0302 130.285 54.4241 132.006 53.1966C132.927 52.7174 133.675 51.9632 134.147 51.0389C134.618 50.1145 134.79 49.0662 134.638 48.0397C134.57 47.8984 134.535 47.7438 134.535 47.5872C134.535 47.4306 134.57 47.276 134.638 47.1347C134.723 46.9982 134.841 46.8847 134.98 46.804C135.119 46.7233 135.276 46.6778 135.437 46.6716C136.321 46.6716 137.416 46.2927 137.542 45.1351C137.588 44.5889 137.452 44.0429 137.155 43.5823C136.858 43.1216 136.417 42.7721 135.9 42.5882C135.716 42.5318 135.552 42.425 135.425 42.2799C135.299 42.1349 135.216 41.9573 135.185 41.7673C135.154 41.5712 135.179 41.3703 135.257 41.1878C135.335 41.0053 135.463 40.8487 135.627 40.736C136.833 40.1077 137.805 39.1065 138.397 37.8815C138.988 36.6564 139.168 35.2731 138.91 33.9374C138.11 30.9064 134.701 28.6542 130.365 28.3385C130.133 28.3236 129.913 28.2309 129.741 28.0756C129.568 27.9202 129.453 27.7112 129.414 27.4824C129.375 27.2535 129.415 27.0182 129.526 26.8146C129.637 26.6109 129.814 26.4507 130.028 26.36C131.609 25.7536 133.01 24.7557 134.1 23.4598C135.189 22.1639 135.932 20.6125 136.258 18.951C136.476 17.2167 136.251 15.4556 135.603 13.8323C134.955 12.2089 133.906 10.7764 132.554 9.66868C130.365 7.68417 127.577 6.48489 124.631 6.26003C121.685 6.03517 118.748 6.79752 116.283 8.42683ZM12.41 60.6266C12.6185 60.5754 12.8362 60.5748 13.0449 60.6247C13.2537 60.6747 13.4475 60.7738 13.6102 60.9139C13.7729 61.0539 13.8997 61.2308 13.9802 61.4298C14.0607 61.6288 14.0925 61.8441 14.0728 62.0579C14.0523 62.6079 14.1731 63.1541 14.4236 63.6442C14.6742 64.1342 15.0462 64.5519 15.5041 64.8573C15.7118 65.0061 15.9298 65.1398 16.1566 65.2572C16.8957 65.6878 17.743 65.8969 18.5976 65.8596C19.4521 65.8223 20.2779 65.5401 20.9767 65.0468C21.1643 64.8912 21.3907 64.7894 21.6316 64.7523C21.8726 64.7153 22.1191 64.7443 22.3448 64.8363C22.5669 64.9229 22.7629 65.0653 22.914 65.2496C23.0652 65.4339 23.1663 65.654 23.2078 65.8887C23.5406 67.3652 24.3044 68.7096 25.4024 69.7513C26.5004 70.7931 27.883 71.4853 29.375 71.7401C31.0909 72.1626 32.8861 72.1408 34.5913 71.6768C36.2964 71.2128 37.8551 70.3218 39.1203 69.088C37.199 67.2486 35.8784 64.8715 35.3316 62.2684C34.3281 62.7861 33.2192 63.067 32.0902 63.0893C29.6233 63.0008 27.289 61.9508 25.5863 60.1636C23.3508 57.8224 21.9576 54.8041 21.626 51.5841C21.2945 48.3641 22.0435 45.1253 23.7551 42.3777C23.0499 40.2295 22.9178 37.9343 23.3719 35.7193C23.8259 33.5043 24.8504 31.4463 26.344 29.7488C23.0571 29.0654 19.6336 29.636 16.746 31.3484C15.9734 31.7667 15.3018 32.3489 14.7781 33.0543C14.2545 33.7598 13.8917 34.5712 13.715 35.4318C13.6679 35.7777 13.4924 36.0931 13.2233 36.3154C12.9542 36.5378 12.6112 36.6506 12.2627 36.6316C11.277 36.6833 10.3189 36.9749 9.47152 37.4811C8.62418 37.9873 7.91325 38.6928 7.40053 39.5362C7.00144 40.0182 6.7258 40.5902 6.59744 41.2026C6.46908 41.8151 6.49187 42.4496 6.66384 43.0513C6.79792 43.3035 6.84971 43.5913 6.81197 43.8744C6.77422 44.1575 6.64882 44.4217 6.45335 44.6299C5.98538 45.1773 5.68812 45.8498 5.59834 46.5643C5.50855 47.2788 5.63019 48.004 5.9482 48.6501C6.37244 49.4324 6.99821 50.0869 7.76061 50.5458C8.52302 51.0047 9.39431 51.2514 10.2841 51.2601C9.95068 48.9763 10.3563 46.6457 11.4418 44.6089C11.6402 44.3054 11.9493 44.0914 12.3033 44.0128C12.6572 43.9341 13.0279 43.997 13.3362 44.1879C13.4908 44.2823 13.6248 44.4069 13.7302 44.5542C13.8356 44.7016 13.9101 44.8687 13.9494 45.0456C13.9887 45.2224 13.992 45.4054 13.9589 45.5835C13.9259 45.7616 13.8572 45.9313 13.7571 46.0822C13.2223 47.2172 12.931 48.4515 12.902 49.7058C12.873 50.9601 13.1069 52.2065 13.5887 53.365C13.821 53.9918 14.2132 54.547 14.7265 54.9754C15.2397 55.4037 15.8561 55.6902 16.5144 55.8066C16.8732 55.8732 17.1914 56.0784 17.4001 56.3777C17.6089 56.6771 17.6914 57.0465 17.63 57.4062C17.5795 57.7259 17.4155 58.0167 17.1681 58.2254C16.9208 58.4341 16.6065 58.5468 16.2829 58.5428H16.0514C14.9842 58.3657 13.9783 57.9243 13.1254 57.2588C12.2725 56.5934 11.5996 55.7251 11.1682 54.7331C9.44221 56.017 8.70552 57.5325 9.23173 58.9428C9.49538 59.5396 9.95231 60.0303 10.5289 60.3358C11.1055 60.6413 11.7681 60.7437 12.41 60.6266ZM47.2239 74.0344C45.8719 73.4564 44.7167 72.4986 43.8983 71.2771C43.0138 71.057 42.1587 70.732 41.3514 70.3088C40.1556 71.646 38.6886 72.713 37.0481 73.4388C35.4077 74.1647 33.6314 74.5328 31.8376 74.5185C30.7517 74.5193 29.6699 74.3849 28.6172 74.1186C26.914 73.7717 25.3207 73.0155 23.9749 71.9154C22.6292 70.8153 21.5712 69.4043 20.8925 67.8041C19.8982 68.1672 18.8383 68.3156 17.7826 68.2394C16.7269 68.1632 15.6992 67.8642 14.7674 67.3621C14.5094 67.2205 14.2631 67.0586 14.0307 66.878C13.4927 66.7344 12.9251 66.7451 12.3928 66.9089C11.8606 67.0727 11.3851 67.3829 11.0208 67.8041C10.8007 68.0909 10.6813 68.4423 10.6813 68.8039C10.6813 69.1655 10.8007 69.5169 11.0208 69.8037C11.1345 69.9673 11.2105 70.1542 11.2432 70.3507C11.276 70.5472 11.2647 70.7486 11.2103 70.9403C11.1482 71.1275 11.0491 71.3004 10.9189 71.4486C10.7888 71.5969 10.6302 71.7175 10.4525 71.8033C9.91336 72.0894 9.46209 72.5167 9.14696 73.0394C8.83183 73.5621 8.6647 74.1607 8.66343 74.7711C8.66343 76.1392 9.77899 77.2548 11.7575 78.0125C12.0321 78.1157 12.2662 78.3044 12.4253 78.5507C12.5845 78.797 12.6603 79.088 12.6416 79.3807C12.6234 79.6758 12.5115 79.9574 12.3222 80.1845C12.1329 80.4116 11.8761 80.5724 11.5891 80.6436C7.92674 81.5486 7.7373 84.2007 7.82149 85.1268C7.83464 85.9658 8.12135 86.7775 8.63805 87.4385C9.15474 88.0996 9.87315 88.5739 10.6841 88.7892C11.0147 88.8087 11.327 88.9474 11.5631 89.1796C11.7993 89.4119 11.9431 89.7219 11.968 90.0521C11.9829 90.6241 12.1508 91.1816 12.4544 91.6665C12.758 92.1515 13.186 92.5462 13.694 92.8095C14.2953 93.0592 14.9529 93.1422 15.5975 93.0496C16.242 92.957 16.8497 92.6922 17.3564 92.2833C17.6321 92.0877 17.9713 92.0029 18.3066 92.0458C18.642 92.0887 18.9489 92.2561 19.1665 92.5148C19.6587 93.0754 20.327 93.4517 21.0616 93.5818C21.7961 93.7119 22.5531 93.588 23.2078 93.2304C23.9507 92.7385 24.4887 91.9926 24.7212 91.1324C24.9537 90.2723 24.8646 89.3569 24.4707 88.5577C23.0034 89.1691 21.4296 89.4838 19.8401 89.4838C19.3349 89.4838 18.8298 89.4838 18.3035 89.4838C18.1235 89.4655 17.9488 89.4116 17.7897 89.3253C17.6306 89.239 17.4903 89.122 17.3767 88.981C17.2632 88.8401 17.1787 88.678 17.1283 88.5041C17.0778 88.3303 17.0623 88.1482 17.0827 87.9684C17.0985 87.7892 17.1499 87.615 17.234 87.456C17.3181 87.2971 17.4332 87.1565 17.5725 87.0427C17.7117 86.929 17.8724 86.8442 18.045 86.7935C18.2175 86.7428 18.3985 86.7272 18.5772 86.7476C23.1657 87.2106 26.6387 85.1058 29.2487 80.3068C29.4217 79.9858 29.7152 79.7467 30.0645 79.6421C30.2375 79.5903 30.419 79.5731 30.5986 79.5914C30.7782 79.6098 30.9525 79.6633 31.1114 79.749C31.2704 79.8347 31.4109 79.9508 31.5249 80.0908C31.639 80.2308 31.7243 80.3919 31.7761 80.5649C31.8279 80.7378 31.8451 80.9193 31.8268 81.099C31.8085 81.2786 31.7549 81.4528 31.6692 81.6118C30.5134 83.8886 28.8411 85.8636 26.786 87.379C26.8554 87.4509 26.9187 87.5283 26.9754 87.6105C27.4767 88.2947 28.173 88.8114 28.973 89.0931C29.773 89.3748 30.6394 89.4083 31.4587 89.1892C32.0804 89.1221 32.6657 88.8632 33.1334 88.4482C33.6011 88.0333 33.928 87.4831 34.0687 86.8739C34.0955 86.5952 34.207 86.3314 34.3884 86.1182C34.5698 85.9049 34.8122 85.7524 35.083 85.6813C35.3538 85.6101 35.6398 85.6238 35.9026 85.7204C36.1654 85.8169 36.3922 85.9918 36.5524 86.2214C36.636 86.3786 36.7651 86.5069 36.9229 86.5896C37.0806 86.6722 37.2596 86.7052 37.4365 86.6844C38.0167 86.504 38.5433 86.1827 38.9693 85.7494C39.3954 85.316 39.7075 84.784 39.8781 84.2007C40.157 83.601 40.2652 82.936 40.191 82.2788C40.1167 81.6216 39.8628 80.9975 39.4571 80.4752C39.244 80.2337 39.1228 79.9249 39.115 79.6029C39.1072 79.2809 39.2133 78.9666 39.4144 78.7151C39.6156 78.4636 39.8991 78.2912 40.2149 78.2281C40.5307 78.165 40.8586 78.2154 41.141 78.3703C41.8894 78.7817 42.7452 78.9557 43.5948 78.8692C44.4444 78.7827 45.2477 78.4399 45.8979 77.8862C46.4402 77.4191 46.8488 76.8164 47.0817 76.1396C47.3147 75.4628 47.3638 74.7363 47.2239 74.0344ZM77.8282 69.5932C76.2568 68.5553 74.8397 67.3011 73.6185 65.8676C73.5024 65.7294 73.4147 65.5697 73.3603 65.3976C73.3059 65.2255 73.286 65.0444 73.3016 64.8645C73.3173 64.6847 73.3682 64.5098 73.4514 64.3496C73.5347 64.1895 73.6487 64.0473 73.7869 63.9312C73.9251 63.8151 74.0848 63.7274 74.2569 63.673C74.429 63.6186 74.6102 63.5987 74.79 63.6143C74.9698 63.63 75.1448 63.6809 75.3049 63.7641C75.465 63.8474 75.6072 63.9614 75.7233 64.0996C79.933 69.0038 85.3003 70.6877 90.2677 68.5829C94.7299 66.6885 98.8554 61.3002 98.0345 53.5123C98.016 53.3066 98.0442 53.0994 98.1171 52.9062C98.19 52.713 98.3057 52.5389 98.4555 52.3967C98.607 52.2498 98.79 52.1393 98.9906 52.0737C99.1912 52.008 99.4041 51.9889 99.6131 52.0179C108.517 53.3018 114.936 51.0917 118.178 45.7034C121.419 40.315 120.556 32.3798 118.872 30.1487C118.667 29.8998 118.555 29.5873 118.555 29.2646C118.555 28.942 118.667 28.6295 118.872 28.3806C119.456 27.7299 119.875 26.9489 120.095 26.103C120.314 25.2571 120.328 24.3709 120.135 23.5185C120.05 23.0436 119.842 22.5994 119.532 22.23C119.222 21.8607 118.82 21.5792 118.367 21.4136C118.092 21.3267 117.852 21.1521 117.685 20.9166C117.518 20.681 117.432 20.3973 117.441 20.1086C117.583 18.0495 117.281 15.9839 116.554 14.0519C115.828 12.1198 114.695 10.3666 113.231 8.91094C111.733 7.67262 109.985 6.7721 108.107 6.27082C106.229 5.76954 104.265 5.67931 102.349 6.00627C102.141 6.02353 101.931 5.99478 101.734 5.92204C101.538 5.84931 101.36 5.73436 101.213 5.58531C98.5186 2.76483 93.2987 2.78588 89.8678 3.73306C93.0568 6.73243 95.259 10.6302 96.1823 14.9097C96.1927 15.0358 96.1927 15.1625 96.1823 15.2886C97.889 16.0317 99.3812 17.1924 100.521 18.6638C101.662 20.1351 102.413 21.8698 102.707 23.7079C102.768 24.0651 102.685 24.432 102.476 24.7279C102.267 25.0239 101.949 25.2248 101.592 25.2865H101.36C101.034 25.2912 100.717 25.1793 100.466 24.9709C100.215 24.7625 100.047 24.4713 99.992 24.1499C99.7242 22.5993 99.0346 21.1525 97.9986 19.9681C96.9627 18.7836 95.6206 17.9074 94.1195 17.4355C92.1727 16.7136 90.0829 16.4612 88.0202 16.699C85.9574 16.9367 83.9799 17.6578 82.2483 18.8036C81.968 19.0244 81.6126 19.127 81.2577 19.0895C80.9029 19.0519 80.5768 18.8773 80.3489 18.6027C80.121 18.3282 80.0094 17.9754 80.0379 17.6198C80.0663 17.2641 80.2326 16.9336 80.5013 16.6988C82.3293 15.3959 84.4189 14.5063 86.6252 14.092C88.8314 13.6776 91.1014 13.7484 93.2776 14.2993C90.1625 4.06983 81.9747 1.3125 75.7233 2.11234C71.9499 2.46558 68.4407 4.20279 65.8719 6.98927C63.303 9.77575 61.8563 13.4143 61.8104 17.204C61.816 17.3844 61.7854 17.5641 61.7202 17.7324C61.655 17.9007 61.5567 18.0543 61.431 18.1838C61.3054 18.3134 61.155 18.4164 60.9887 18.4867C60.8225 18.5571 60.6438 18.5932 60.4633 18.5932C60.1111 18.5935 59.7724 18.4581 59.5175 18.215C59.2627 17.9719 59.1114 17.64 59.0952 17.2882C58.9744 13.1403 60.4168 9.09843 63.1364 5.96418C60.8026 5.33617 58.3308 5.45299 56.0666 6.2983C53.8023 7.14362 51.8588 8.67519 50.5075 10.679C52.0583 11.0039 53.5688 11.498 55.0118 12.1524C55.3551 12.3003 55.6256 12.5786 55.7637 12.9259C55.9019 13.2733 55.8964 13.6613 55.7485 14.0046C55.6005 14.3479 55.3223 14.6184 54.9749 14.7566C54.6276 14.8947 54.2395 14.8892 53.8962 14.7413C51.2197 13.3969 48.2167 12.8395 45.2361 13.1338C42.2554 13.4282 39.4194 14.5622 37.0576 16.4041C32.1954 19.9402 29.396 25.3076 29.2487 28.0017C31.3292 26.889 33.6204 26.2259 35.9737 26.0555C38.327 25.8851 40.6898 26.2111 42.909 27.0125C43.6375 26.0709 44.5771 25.3136 45.652 24.8017C46.7269 24.2899 47.907 24.0378 49.0972 24.0657C49.2769 24.0738 49.4533 24.1173 49.6162 24.1936C49.7791 24.27 49.9254 24.3777 50.0466 24.5107C50.1678 24.6436 50.2616 24.7992 50.3226 24.9684C50.3837 25.1377 50.4107 25.3173 50.4022 25.497C50.4031 25.6795 50.3656 25.8602 50.2923 26.0274C50.219 26.1946 50.1114 26.3445 49.9765 26.4675C49.8416 26.5904 49.6824 26.6838 49.5092 26.7414C49.336 26.799 49.1526 26.8197 48.9709 26.802C48.0129 26.8174 47.0772 27.0941 46.2648 27.6023C45.4525 28.1105 44.7943 28.8308 44.3613 29.6856C43.7964 30.6566 43.5273 31.7714 43.5872 32.8931C43.647 34.0149 44.0331 35.0947 44.6981 36.0001C44.8973 36.2983 44.9735 36.6619 44.9108 37.015C44.848 37.3681 44.6511 37.6832 44.3613 37.8945C44.1286 38.0431 43.8587 38.1233 43.5826 38.126C43.3597 38.1261 43.1401 38.0726 42.9423 37.9701C42.7445 37.8675 42.5742 37.7188 42.446 37.5366C41.6032 36.3698 41.0736 35.0065 40.9077 33.5767C40.7419 32.147 40.9454 30.6986 41.4988 29.3699C39.4398 28.6473 37.2307 28.4614 35.08 28.8296C32.9292 29.1979 30.9078 30.1083 29.2066 31.4747C26.5545 33.9584 25.7757 37.7892 27.1017 42.3988C27.1547 42.5769 27.1708 42.764 27.1491 42.9485C27.1274 43.1331 27.0683 43.3113 26.9754 43.4723C25.4392 45.7167 24.7127 48.4173 24.9155 51.1296C25.1182 53.8419 26.2382 56.4044 28.091 58.3955C28.9111 59.3848 30.0422 60.067 31.2999 60.3308C32.5575 60.5946 33.8675 60.4243 35.0159 59.8478C35.1344 59.7807 35.262 59.7311 35.3948 59.7005C35.1155 56.9362 35.1155 54.1507 35.3948 51.3864C35.4269 51.0214 35.602 50.6838 35.8819 50.4472C36.1618 50.2107 36.5239 50.0943 36.8892 50.1235C37.0692 50.1394 37.2442 50.1907 37.4042 50.2745C37.5642 50.3583 37.706 50.473 37.8215 50.612C37.937 50.7509 38.0238 50.9114 38.0769 51.084C38.13 51.2567 38.1484 51.4381 38.1311 51.6179C37.5627 58.4165 37.7311 67.6568 45.7295 69.1933C45.9388 69.2353 46.1354 69.3257 46.3035 69.4573C46.4716 69.5888 46.6066 69.7579 46.6977 69.951C47.1757 70.7439 47.8434 71.4053 48.6408 71.8756C49.4382 72.346 50.3401 72.6104 51.2652 72.6452C52.2946 72.7525 53.3348 72.6181 54.3031 72.2527C55.2714 71.8873 56.1411 71.301 56.843 70.5404C56.117 69.3422 55.6376 68.0112 55.4328 66.6254C55.4091 66.4471 55.4208 66.2659 55.4673 66.0921C55.5137 65.9183 55.594 65.7554 55.7035 65.6127C55.813 65.47 55.9495 65.3503 56.1053 65.2604C56.2611 65.1705 56.4331 65.1122 56.6115 65.0889C56.7902 65.0623 56.9724 65.0719 57.1473 65.1172C57.3222 65.1625 57.4863 65.2425 57.6296 65.3525C57.773 65.4624 57.8927 65.6001 57.9818 65.7573C58.0709 65.9145 58.1274 66.0881 58.148 66.2676C58.6531 70.0773 62.6313 73.7397 67.1777 74.6869C69.2632 75.0683 71.4159 74.7811 73.3286 73.8664C75.2412 72.9517 76.816 71.4561 77.8282 69.5932ZM81.701 72.3505C81.2169 72.1821 80.7118 71.9927 80.2277 71.7822C79.1221 73.5811 77.661 75.1353 75.9338 76.3497C77.5809 78.9297 78.5509 81.8833 78.7543 84.9374C80.1124 84.3738 81.5798 84.122 83.0481 84.2007C83.224 83.9382 83.4137 83.6853 83.6164 83.443C82.0238 79.9751 81.3636 76.1517 81.701 72.3505ZM31.4587 105.796C33.6251 104.888 35.7339 103.847 37.7732 102.681C42.5722 100.071 47.5396 97.377 50.8653 97.5243C52.9094 97.7243 54.8671 98.4494 56.5483 99.6291C58.8636 100.534 65.5991 99.2082 69.1773 97.7769C70.798 97.1244 72.1241 94.4723 73.5974 92.9779C74.5782 91.6003 75.8765 90.4793 77.3823 89.7099C78.8882 88.9405 80.5573 88.5453 82.2483 88.5577C83.903 88.2175 85.4986 87.636 86.9842 86.8318C87.8623 86.4845 88.6687 85.9778 89.3626 85.3373C89.9938 84.6827 90.7485 84.1596 91.5831 83.7983C92.4176 83.437 93.3155 83.2447 94.2248 83.2325C95.614 83.4219 98.3081 84.1586 100.539 84.748C102.418 85.146 104.375 84.9244 106.117 84.1165C108.544 82.6415 111.423 82.0957 114.221 82.58C117.858 83.6836 121.621 84.3201 125.418 84.4743C127.243 84.3981 129.062 84.2295 130.87 83.9692C129.825 83.0666 128.672 82.2961 127.439 81.6749C126.457 81.0914 125.368 80.7107 124.237 80.5553C123.105 80.3998 121.954 80.4728 120.851 80.7698C120.58 80.8634 120.288 80.8712 120.013 80.792C119.738 80.7129 119.494 80.5508 119.314 80.3278C115.273 75.2131 104.812 76.1182 100.118 79.549C99.8295 79.7602 99.4694 79.8498 99.1153 79.7986C98.7612 79.7475 98.4412 79.5597 98.224 79.2754C97.6341 78.5475 96.8989 77.9506 96.0654 77.523C95.2318 77.0953 94.3181 76.8462 93.3828 76.7917C92.0226 76.6749 90.6527 76.8327 89.3546 77.2558C88.0565 77.6788 86.8567 78.3585 85.8265 79.2544C85.4983 79.5405 85.1539 79.8075 84.7951 80.0542C84.9004 80.3489 85.0056 80.6225 85.1319 80.9172C86.1289 80.2239 87.2206 79.6781 88.3733 79.2965C89.372 78.8727 90.4457 78.6543 91.5306 78.6543C92.6154 78.6543 93.6892 78.8727 94.6878 79.2965C94.842 79.3911 94.9758 79.5155 95.0816 79.6622C95.1874 79.809 95.2631 79.9752 95.3042 80.1514C95.3453 80.3276 95.351 80.5101 95.3211 80.6886C95.2912 80.867 95.2262 81.0377 95.1299 81.1908C94.9348 81.4978 94.6272 81.7161 94.273 81.7987C93.9188 81.8814 93.5463 81.8218 93.2355 81.6328C91.8937 81.2731 90.4697 81.3769 89.1942 81.9275C88.2039 82.1804 87.2771 82.6366 86.4726 83.2672C85.6681 83.8977 85.0037 84.6887 84.5215 85.5899C84.4014 85.8419 84.214 86.0559 83.98 86.2082C83.746 86.3605 83.4745 86.4451 83.1955 86.4529C81.0906 86.4529 79.1542 86.4529 78.2491 87.5474C78.029 87.8013 77.7243 87.9669 77.3914 88.0133C77.0586 88.0597 76.7202 87.9839 76.439 87.8C75.3401 87.4742 74.1583 87.5796 73.1344 88.0947C72.4877 88.2797 71.8891 88.6034 71.3802 89.0432C70.8713 89.483 70.4643 90.0284 70.1876 90.6415C70.1127 90.9364 69.9417 91.1979 69.7015 91.3847C69.4614 91.5715 69.1658 91.6729 68.8616 91.6729H68.5038C68.1505 91.5788 67.8485 91.3493 67.6633 91.0341C67.4781 90.7189 67.4246 90.3434 67.5145 89.989C67.8916 88.9441 68.5062 88.0011 69.3097 87.2341C70.1133 86.4671 71.0838 85.897 72.1451 85.5689C73.147 85.1817 74.2076 84.9681 75.2813 84.9374C75.2194 83.9803 75.0786 83.0299 74.8603 82.0959C74.0395 81.9485 73.2186 81.8223 72.2924 81.6328C68.3564 80.8751 67.5566 82.7063 66.9672 84.0744C66.8473 84.3519 66.6415 84.5835 66.38 84.735C66.1185 84.8866 65.8152 84.9502 65.5149 84.9164C64.2182 84.7489 62.901 84.8493 61.6447 85.2113C60.3884 85.5734 59.2198 86.1894 58.2111 87.0212C57.84 87.4985 57.6033 88.0663 57.5256 88.6659C57.4478 89.2654 57.5319 89.8749 57.7691 90.431C57.8412 90.6599 57.8518 90.9038 57.7999 91.1381C57.7479 91.3724 57.6353 91.5889 57.4732 91.7659C57.3111 91.9429 57.1053 92.0742 56.8765 92.1465C56.6477 92.2189 56.4038 92.2297 56.1694 92.178C51.6651 91.2098 43.5405 92.0307 41.1199 95.5458C40.9263 95.8169 40.643 96.0108 40.3201 96.093C38.6492 96.5035 37.0781 97.2462 35.7003 98.2768C34.3225 99.3074 33.1664 100.605 32.3007 102.092C31.6464 103.211 31.3525 104.504 31.4587 105.796ZM158.759 109.059C158.76 101.044 157.459 93.0822 154.907 85.4847C154.57 84.4954 136.532 87.1685 130.323 87.9263C125.228 88.1215 120.127 87.7188 115.126 86.7265C112.336 86.301 109.485 86.5832 106.833 87.5474C104.615 88.4671 102.149 88.6008 99.8447 87.9263C97.1923 86.9888 94.2797 87.1171 91.72 88.2841C89.657 89.3423 87.492 90.1886 85.2582 90.8099C82.1043 91.6943 79.1275 93.1186 76.46 95.0195C74.6812 97.2317 72.5977 99.1805 70.2718 100.808C66.3089 102.465 62.0642 103.344 57.7691 103.397C56.1063 103.397 54.212 102.134 52.4439 102.029C47.7967 102.434 43.2649 103.697 39.0782 105.754C36.478 107.431 33.509 108.449 30.4274 108.722C28.1798 108.516 25.9627 108.057 23.8182 107.354C22.1101 107.07 20.3595 107.185 18.7035 107.691C17.7563 108.133 13.6098 110.995 13.6308 111.9C14.2237 130.786 22.1102 148.707 35.6345 161.901C49.1588 175.096 67.2691 182.538 86.1633 182.665C95.7631 182.599 105.256 180.642 114.1 176.907C122.943 173.173 130.965 167.732 137.706 160.897C144.447 154.062 149.776 145.966 153.388 137.072C157 128.177 158.825 118.659 158.759 109.059ZM136.974 135.453C136.72 135.389 136.452 135.42 136.219 135.541C135.986 135.661 135.806 135.862 135.711 136.106C135.669 136.226 135.653 136.353 135.664 136.48C135.675 136.607 135.713 136.73 135.774 136.841C135.836 136.952 135.92 137.049 136.022 137.125C136.123 137.202 136.24 137.256 136.363 137.285C136.617 137.346 136.885 137.312 137.114 137.187C137.344 137.063 137.519 136.857 137.605 136.611C137.647 136.494 137.664 136.369 137.654 136.245C137.644 136.121 137.608 136 137.549 135.891C137.489 135.782 137.407 135.686 137.308 135.611C137.209 135.535 137.095 135.482 136.974 135.453ZM131.228 127.139C131.123 127.103 131.012 127.088 130.901 127.095C130.79 127.102 130.682 127.131 130.582 127.18C130.482 127.229 130.393 127.297 130.32 127.38C130.246 127.464 130.19 127.56 130.154 127.665C130.118 127.771 130.103 127.882 130.11 127.992C130.117 128.103 130.146 128.211 130.195 128.311C130.244 128.411 130.312 128.5 130.395 128.573C130.478 128.647 130.575 128.703 130.68 128.739C130.788 128.784 130.904 128.807 131.02 128.806C131.137 128.806 131.252 128.783 131.36 128.738C131.468 128.693 131.565 128.627 131.647 128.544C131.729 128.461 131.794 128.363 131.838 128.255C131.898 128.026 131.868 127.783 131.755 127.576C131.641 127.368 131.453 127.212 131.228 127.139ZM139.647 132.359C139.371 132.272 139.071 132.295 138.812 132.425C138.552 132.555 138.354 132.78 138.258 133.054C138.212 133.188 138.194 133.33 138.205 133.471C138.215 133.612 138.254 133.749 138.319 133.875C138.384 134.001 138.473 134.112 138.582 134.202C138.691 134.293 138.817 134.36 138.952 134.401C139.223 134.476 139.512 134.446 139.762 134.318C140.012 134.189 140.204 133.97 140.3 133.706C140.346 133.575 140.366 133.436 140.358 133.297C140.35 133.158 140.315 133.022 140.255 132.897C140.194 132.771 140.109 132.659 140.005 132.567C139.9 132.475 139.779 132.404 139.647 132.359ZM134.659 129.728C134.48 129.675 134.29 129.676 134.111 129.731C133.933 129.785 133.775 129.891 133.657 130.035C133.539 130.179 133.465 130.355 133.447 130.54C133.428 130.726 133.464 130.912 133.551 131.077C133.638 131.242 133.771 131.378 133.935 131.467C134.098 131.557 134.284 131.596 134.47 131.58C134.656 131.564 134.832 131.494 134.978 131.378C135.124 131.262 135.233 131.105 135.29 130.928C135.329 130.808 135.343 130.681 135.333 130.555C135.322 130.429 135.286 130.307 135.227 130.195C135.168 130.083 135.088 129.984 134.99 129.904C134.892 129.824 134.78 129.764 134.659 129.728ZM138.679 128.865C138.817 128.915 138.964 128.938 139.111 128.931C139.257 128.924 139.401 128.889 139.534 128.826C139.667 128.763 139.787 128.675 139.886 128.566C139.984 128.457 140.061 128.33 140.11 128.192C140.196 127.898 140.17 127.583 140.038 127.308C139.906 127.032 139.677 126.815 139.394 126.697C139.257 126.637 139.109 126.606 138.959 126.607C138.809 126.608 138.66 126.64 138.523 126.701C138.387 126.763 138.264 126.852 138.164 126.964C138.064 127.076 137.988 127.207 137.942 127.35C137.852 127.649 137.878 127.971 138.014 128.252C138.151 128.532 138.388 128.752 138.679 128.865Z" fill="#064658"/>
</svg>
