<svg width="215" height="205" viewBox="0 0 215 205" fill="none" xmlns="http://www.w3.org/2000/svg">
<path d="M77.1611 65.6367C77.1709 65.3572 77.2637 65.0869 77.4276 64.8603C77.5915 64.6337 77.8191 64.4609 78.0814 64.3641C78.3438 64.2672 78.629 64.2505 78.9008 64.3162C79.1727 64.3819 79.4188 64.527 79.608 64.7331C79.7971 64.9391 79.9206 65.1967 79.9629 65.4732C80.0052 65.7496 79.9643 66.0324 79.8454 66.2855C79.7265 66.5386 79.5349 66.7507 79.2952 66.8946C79.0554 67.0386 78.7782 67.1079 78.4989 67.0939C78.1292 67.0753 77.7817 66.912 77.5314 66.6394C77.2811 66.3667 77.1481 66.0066 77.1611 65.6367ZM85.6894 66.4011C85.865 66.4105 86.0393 66.3674 86.1902 66.2773C86.3411 66.1871 86.4617 66.0541 86.5365 65.895C86.6114 65.736 86.6372 65.5583 86.6105 65.3846C86.5839 65.2108 86.5061 65.049 86.387 64.9197C86.2679 64.7904 86.113 64.6996 85.942 64.6588C85.7711 64.618 85.5918 64.6291 85.4272 64.6906C85.2626 64.7522 85.12 64.8615 85.0178 65.0044C84.9156 65.1474 84.8583 65.3176 84.8533 65.4933C84.8468 65.7238 84.9305 65.9477 85.0867 66.1173C85.2429 66.2869 85.4592 66.3887 85.6894 66.4011ZM181.245 93.7778C181.282 93.5845 181.26 93.3845 181.182 93.204C181.104 93.0234 180.973 92.8705 180.807 92.7654C180.64 92.6602 180.446 92.6076 180.249 92.6144C180.053 92.6211 179.863 92.687 179.704 92.8034C179.545 92.9198 179.425 93.0813 179.36 93.2668C179.294 93.4523 179.286 93.6533 179.336 93.8436C179.387 94.0339 179.493 94.2046 179.642 94.3334C179.79 94.4623 179.975 94.5434 180.17 94.5661C180.299 94.5974 180.433 94.6015 180.564 94.5781C180.695 94.5547 180.819 94.5043 180.929 94.4301C181.039 94.3559 181.133 94.2596 181.204 94.1473C181.274 94.035 181.321 93.9091 181.341 93.7778H181.245ZM215 102.33C215 158.851 166.864 204.67 107.5 204.67C48.1361 204.67 0 158.851 0 102.33C0 45.8089 48.1361 0.0138855 107.5 0.0138855C166.864 0.0138855 215 45.8328 215 102.33ZM207.594 107.108C207.594 56.9411 164.929 16.33 112.278 16.33C59.6267 16.33 16.985 56.9411 16.985 107.108C16.985 157.274 59.7222 197.909 112.278 197.909C164.833 197.909 207.594 157.298 207.594 107.203V107.108ZM155.541 66.1622C152.148 67.5478 154.131 71.155 155.684 70.4861C164.141 66.9028 175.87 70.94 182.989 78.2978C183.491 78.7994 184.351 78.0111 183.849 77.175C177.041 66.21 163.806 62.77 155.541 66.1622ZM182.75 109.353C145.866 126.888 100.094 111.575 84.8056 87.28C88.11 85.4004 91.8495 84.4202 95.6511 84.4372C96.3678 84.4372 96.105 83.2906 95.1494 83.1233C79.9083 80.3761 69.6122 91.9383 70.5678 101.398C70.9261 105.077 74.4139 105.292 74.3422 103.596C74.2228 99.6241 75.5852 95.7497 78.1644 92.7267C78.2025 92.8268 78.2505 92.9228 78.3078 93.0133C93.1667 115.66 146.511 134.532 183.204 112.435C185.688 110.93 184.733 108.398 182.75 109.353ZM80.8639 71.6806C81.007 71.7028 81.1532 71.6939 81.2925 71.6543C81.4318 71.6147 81.5609 71.5454 81.6709 71.4513C81.7809 71.3571 81.8691 71.2402 81.9297 71.1086C81.9902 70.9771 82.0216 70.834 82.0216 70.6892C82.0216 70.5444 81.9902 70.4013 81.9297 70.2697C81.8691 70.1382 81.7809 70.0213 81.6709 69.9271C81.5609 69.8329 81.4318 69.7636 81.2925 69.724C81.1532 69.6845 81.007 69.6755 80.8639 69.6978C80.6018 69.6912 80.3475 69.7876 80.1555 69.9662C79.9635 70.1448 79.8491 70.3914 79.8367 70.6533C79.8298 70.79 79.8517 70.9267 79.9009 71.0544C79.9501 71.1821 80.0255 71.2981 80.1223 71.3949C80.2191 71.4917 80.3351 71.5671 80.4628 71.6163C80.5906 71.6655 80.7272 71.6874 80.8639 71.6806ZM190.251 89.9556C190.41 89.979 190.572 89.9702 190.727 89.9296C190.883 89.889 191.028 89.8175 191.155 89.7194C191.282 89.6213 191.388 89.4986 191.467 89.3585C191.546 89.2185 191.595 89.0641 191.613 88.9044C191.648 88.5703 191.553 88.2356 191.349 87.969C191.144 87.7025 190.846 87.5243 190.514 87.4711C190.353 87.4404 190.187 87.4439 190.027 87.4813C189.868 87.5188 189.718 87.5893 189.587 87.6884C189.457 87.7875 189.348 87.9129 189.269 88.0566C189.19 88.2002 189.142 88.3588 189.128 88.5222C189.101 88.8533 189.203 89.1822 189.412 89.4403C189.621 89.6984 189.922 89.8658 190.251 89.9078V89.9556ZM184.398 93.6344C184.382 93.8002 184.4 93.9676 184.45 94.1263C184.501 94.285 184.584 94.4315 184.694 94.5569C184.804 94.6823 184.938 94.7838 185.088 94.8553C185.239 94.9267 185.402 94.9665 185.569 94.9722C185.894 94.9995 186.216 94.9005 186.47 94.6959C186.724 94.4912 186.889 94.1966 186.931 93.8733C186.944 93.7132 186.925 93.5521 186.875 93.3993C186.826 93.2465 186.747 93.105 186.642 92.9828C186.538 92.8607 186.411 92.7605 186.267 92.6878C186.124 92.6151 185.968 92.5715 185.808 92.5595C185.486 92.5174 185.16 92.6005 184.898 92.7917C184.636 92.9828 184.457 93.2674 184.398 93.5867V93.6344ZM197.37 94.16C197.48 94.1856 197.595 94.1856 197.705 94.16C197.815 94.1344 197.918 94.084 198.006 94.0125C198.093 93.941 198.163 93.8503 198.211 93.7475C198.258 93.6448 198.281 93.5325 198.278 93.4194C198.299 93.2211 198.244 93.022 198.125 92.8625C198.005 92.7029 197.829 92.5946 197.633 92.5595C197.534 92.5496 197.433 92.5599 197.338 92.5897C197.243 92.6196 197.155 92.6683 197.079 92.733C197.003 92.7977 196.941 92.877 196.897 92.9662C196.852 93.0554 196.826 93.1527 196.821 93.2522C196.79 93.4381 196.829 93.6286 196.931 93.7873C197.032 93.946 197.189 94.0617 197.37 94.1122V94.16ZM182.439 88.1639C182.419 88.5111 182.536 88.8524 182.763 89.1156C182.99 89.3787 183.311 89.5429 183.658 89.5733C183.822 89.6039 183.99 89.6006 184.152 89.5636C184.315 89.5266 184.468 89.4567 184.602 89.3582C184.736 89.2597 184.849 89.1347 184.933 88.9909C185.017 88.8471 185.071 88.6876 185.091 88.5222C185.112 88.1825 185.002 87.8475 184.785 87.5857C184.567 87.3238 184.258 87.1547 183.921 87.1128C183.757 87.0782 183.588 87.077 183.425 87.1091C183.261 87.1412 183.105 87.206 182.967 87.2996C182.828 87.3933 182.711 87.5139 182.62 87.6542C182.529 87.7944 182.468 87.9516 182.439 88.1161V88.1639ZM188.125 98.2689C188.415 98.289 188.702 98.1957 188.925 98.0085C189.148 97.8214 189.289 97.555 189.319 97.2656C189.336 97.1249 189.323 96.9824 189.282 96.8469C189.241 96.7114 189.172 96.5858 189.08 96.4781C188.988 96.3705 188.875 96.283 188.748 96.2211C188.62 96.1593 188.481 96.1245 188.34 96.1189C188.046 96.0922 187.753 96.1826 187.525 96.3704C187.297 96.5582 187.152 96.8283 187.122 97.1222C187.112 97.261 187.13 97.4004 187.176 97.5318C187.222 97.6632 187.294 97.784 187.388 97.8867C187.482 97.9895 187.595 98.0721 187.722 98.1296C187.849 98.1871 187.986 98.2182 188.125 98.2211V98.2689ZM192.377 94.7572C192.629 94.7707 192.877 94.6863 193.068 94.5216C193.26 94.3569 193.38 94.1247 193.404 93.8733C193.421 93.7508 193.413 93.6262 193.381 93.5068C193.35 93.3873 193.294 93.2754 193.219 93.1776C193.143 93.0798 193.049 92.998 192.941 92.937C192.834 92.8759 192.715 92.8369 192.592 92.8222C192.336 92.7953 192.079 92.8705 191.878 93.0315C191.677 93.1925 191.547 93.4263 191.517 93.6822C191.503 93.9307 191.584 94.1751 191.744 94.3659C191.904 94.5566 192.13 94.6795 192.377 94.7094V94.7572ZM85.0922 70.08C85.0782 70.3735 85.1517 70.6646 85.3036 70.9162C85.4554 71.1677 85.6786 71.3685 85.9449 71.4928C86.2111 71.6171 86.5083 71.6595 86.7987 71.6144C87.0891 71.5694 87.3595 71.439 87.5755 71.2398C87.7916 71.0406 87.9435 70.7817 88.012 70.496C88.0804 70.2102 88.0624 69.9105 87.96 69.6351C87.8577 69.3596 87.6758 69.1208 87.4373 68.9491C87.1989 68.7773 86.9148 68.6804 86.6211 68.6706C86.2322 68.6576 85.8538 68.7981 85.5677 69.0619C85.2816 69.3256 85.1108 69.6913 85.0922 70.08ZM194.862 98.1256C194.965 98.132 195.069 98.118 195.167 98.0842C195.265 98.0505 195.356 97.9977 195.434 97.9289C195.511 97.8601 195.575 97.7766 195.62 97.6833C195.665 97.59 195.692 97.4886 195.698 97.385C195.715 97.2853 195.71 97.1831 195.685 97.0852C195.66 96.9873 195.614 96.8959 195.551 96.8169C195.488 96.7379 195.409 96.6732 195.319 96.627C195.229 96.5808 195.13 96.5542 195.029 96.5489C194.925 96.5424 194.821 96.5565 194.723 96.5902C194.625 96.624 194.535 96.6768 194.457 96.7456C194.379 96.8144 194.316 96.8978 194.271 96.9912C194.225 97.0845 194.199 97.1859 194.193 97.2895C194.179 97.3886 194.186 97.4895 194.213 97.5859C194.24 97.6823 194.286 97.7724 194.348 97.8505C194.411 97.9286 194.489 97.9933 194.577 98.0406C194.665 98.0879 194.762 98.1168 194.862 98.1256ZM98.4222 68.36C98.556 68.3664 98.6896 68.346 98.8153 68.2999C98.9411 68.2539 99.0563 68.1831 99.1543 68.0919C99.2522 68.0006 99.3309 67.8906 99.3857 67.7685C99.4405 67.6463 99.4703 67.5144 99.4733 67.3806C99.4799 67.1121 99.381 66.8518 99.1979 66.6553C99.0149 66.4588 98.7621 66.3419 98.4939 66.3294C98.2254 66.3229 97.9651 66.4218 97.7686 66.6048C97.5722 66.7879 97.4552 67.0406 97.4428 67.3089C97.4364 67.4426 97.4568 67.5763 97.5028 67.702C97.5489 67.8277 97.6196 67.943 97.7109 68.0409C97.8022 68.1389 97.9121 68.2176 98.0343 68.2724C98.1565 68.3272 98.2884 68.357 98.4222 68.36ZM101.026 58.6133C112.254 53.2383 128.331 58.04 138.388 67.5717C139.105 68.2406 140.228 67.0939 139.487 66.0189C129.669 51.6856 111.561 47.6722 100.572 52.7606C96.0572 54.9583 98.9478 59.5928 101.026 58.6133ZM96.6306 74.4756C96.7655 74.482 96.9004 74.4617 97.0275 74.416C97.1545 74.3702 97.2714 74.2998 97.3712 74.2088C97.4711 74.1178 97.552 74.0081 97.6094 73.8858C97.6667 73.7635 97.6994 73.6311 97.7056 73.4961C97.7056 73.2237 97.5973 72.9624 97.4047 72.7698C97.212 72.5771 96.9508 72.4689 96.6783 72.4689C96.4059 72.4689 96.1446 72.5771 95.952 72.7698C95.7593 72.9624 95.6511 73.2237 95.6511 73.4961C95.6679 73.7504 95.7765 73.9898 95.9567 74.17C96.1368 74.3502 96.3763 74.4587 96.6306 74.4756ZM93.7161 70.1517C94.0329 70.1517 94.3367 70.0258 94.5607 69.8018C94.7847 69.5778 94.9106 69.274 94.9106 68.9572C94.9106 68.6404 94.7847 68.3366 94.5607 68.1126C94.3367 67.8886 94.0329 67.7628 93.7161 67.7628C93.3993 67.7628 93.0955 67.8886 92.8715 68.1126C92.6475 68.3366 92.5217 68.6404 92.5217 68.9572C92.5217 69.274 92.6475 69.5778 92.8715 69.8018C93.0955 70.0258 93.3993 70.1517 93.7161 70.1517ZM88.3889 73.7589C88.0309 73.7589 87.6876 73.9011 87.4345 74.1542C87.1814 74.4073 87.0392 74.7506 87.0392 75.1086C87.0392 75.4666 87.1814 75.8099 87.4345 76.063C87.6876 76.3161 88.0309 76.4583 88.3889 76.4583C88.5583 76.4647 88.7273 76.4377 88.8863 76.3787C89.0453 76.3197 89.191 76.2299 89.3153 76.1146C89.4395 75.9992 89.5398 75.8605 89.6104 75.7063C89.681 75.5521 89.7205 75.3856 89.7267 75.2161C89.7513 75.0291 89.7346 74.839 89.6779 74.6592C89.6211 74.4793 89.5256 74.3141 89.398 74.1752C89.2705 74.0362 89.114 73.9269 88.9397 73.855C88.7653 73.7831 88.5773 73.7503 88.3889 73.7589ZM89.44 64.7528C89.6385 64.7624 89.8368 64.732 90.0233 64.6634C90.2097 64.5948 90.3805 64.4894 90.5254 64.3534C90.6703 64.2175 90.7863 64.0537 90.8666 63.872C90.9469 63.6903 90.9898 63.4942 90.9928 63.2956C91.0021 62.9981 90.923 62.7046 90.7655 62.4521C90.608 62.1996 90.3792 61.9994 90.1079 61.8769C89.8367 61.7545 89.5353 61.7151 89.2417 61.7639C88.9481 61.8127 88.6756 61.9475 88.4586 62.1511C88.2416 62.3548 88.0899 62.6182 88.0225 62.9081C87.9552 63.198 87.9753 63.5013 88.0804 63.7797C88.1854 64.0582 88.3706 64.2992 88.6126 64.4724C88.8546 64.6456 89.1426 64.7432 89.44 64.7528Z" fill="#064658"/>
</svg>
